<?xml version="1.0" standalone="no"?>
<!DOCTYPE svg PUBLIC "-//W3C//DTD SVG 20010904//EN"
 "http://www.w3.org/TR/2001/REC-SVG-20010904/DTD/svg10.dtd">
<svg version="1.0" xmlns="http://www.w3.org/2000/svg"
 width="1024.000000pt" height="1024.000000pt" viewBox="0 0 1024.000000 1024.000000"
 preserveAspectRatio="xMidYMid meet">

<g transform="translate(0.000000,1024.000000) scale(0.100000,-0.100000)"
fill="#000000" stroke="none">
<path d="M4771 9224 c-11 -15 -21 -30 -21 -34 0 -8 -40 -25 -82 -34 -15 -4
-40 -11 -55 -18 -15 -6 -38 -10 -50 -9 -24 3 -73 -39 -73 -62 0 -21 47 -60 64
-54 9 4 25 -6 42 -26 22 -27 25 -37 20 -75 -9 -66 -34 -111 -99 -175 -47 -47
-57 -62 -51 -80 10 -33 20 -40 61 -43 21 -1 79 -19 129 -40 87 -35 92 -39 97
-72 8 -45 23 -62 57 -62 33 0 60 28 60 63 0 24 11 32 93 74 71 37 101 47 130
44 84 -7 90 47 14 122 -52 51 -97 139 -97 189 0 22 57 93 74 94 29 1 54 17 64
40 11 22 9 28 -13 48 -19 17 -41 25 -93 29 -110 11 -164 31 -182 69 -20 44
-59 50 -89 12z m-53 -151 c-57 -108 -58 -109 -92 -74 -17 18 -30 44 -33 69
l-5 40 43 7 c24 4 59 13 79 21 19 7 38 13 42 13 4 1 -11 -34 -34 -76z m261 53
c70 -16 80 -31 57 -88 -10 -23 -24 -58 -30 -76 l-12 -32 -21 22 c-27 30 -78
114 -98 163 l-16 38 33 -8 c18 -4 57 -13 87 -19z m-130 -72 c17 -36 31 -68 31
-70 0 -2 -17 -4 -37 -4 -21 -1 -57 -5 -80 -9 -24 -5 -43 -6 -43 -3 0 10 85
152 91 152 4 0 21 -30 38 -66z m53 -131 c45 -26 47 -59 8 -131 l-31 -59 -71
11 c-71 11 -72 12 -95 55 -13 24 -23 54 -23 67 0 36 21 73 44 78 42 9 136 -2
168 -21z m-224 -176 c16 -28 40 -72 54 -97 14 -25 29 -55 33 -68 6 -21 5 -22
-12 -12 -10 6 -54 23 -98 38 l-80 27 -3 42 c-3 34 3 52 28 88 17 25 35 43 40
40 5 -3 22 -29 38 -58z m363 -26 c28 -56 21 -67 -66 -103 -38 -15 -82 -37 -98
-49 -16 -11 -31 -19 -33 -16 -6 5 88 188 119 231 l20 28 18 -23 c11 -13 29
-44 40 -68z m-202 0 c14 -9 9 -50 -14 -105 -12 -28 -14 -29 -21 -11 -4 11 -15
40 -25 64 -11 24 -19 47 -19 52 0 12 61 11 79 0z"/>
<path d="M7662 9033 c-43 -71 -120 -198 -169 -283 -50 -85 -121 -205 -159
-267 -38 -61 -109 -178 -159 -259 -49 -81 -109 -178 -133 -216 -58 -93 -104
-186 -98 -197 3 -4 31 -11 63 -14 63 -6 215 -77 443 -208 216 -123 287 -159
315 -159 16 0 115 45 234 107 247 128 435 221 514 252 31 13 57 25 57 28 0 12
-48 96 -90 158 -45 66 -80 123 -307 500 -97 161 -332 559 -377 638 -15 26 -33
47 -41 47 -8 0 -49 -57 -93 -127z m109 -381 c-1 -192 1 -376 5 -410 l6 -61 77
-30 c87 -33 488 -214 595 -268 39 -20 65 -38 58 -40 -15 -6 -117 37 -449 186
-49 22 -112 49 -141 60 -29 12 -74 32 -100 45 l-47 23 -155 -64 c-299 -124
-465 -196 -522 -225 -32 -15 -58 -23 -58 -17 0 6 74 122 164 257 90 136 229
355 309 488 80 133 156 259 170 280 13 21 36 61 51 87 15 27 30 46 33 43 4 -3
5 -163 4 -354z m13 -802 c6 -230 -1 -401 -15 -365 -4 11 -8 157 -8 325 0 168
4 296 8 285 5 -11 11 -121 15 -245z"/>
<path d="M3962 8969 c-194 -96 -166 -374 43 -434 45 -13 57 -13 99 -1 148 45
215 186 152 321 -54 117 -185 168 -294 114z m91 -73 c43 -18 69 -49 72 -86 2
-16 -1 -28 -5 -25 -5 3 -6 -3 -3 -14 4 -17 2 -18 -35 -8 -46 12 -99 -3 -86
-25 5 -7 2 -9 -8 -5 -9 3 -20 1 -25 -4 -17 -17 -36 19 -36 67 0 54 38 102 91
113 1 1 17 -5 35 -13z m-13 -146 c0 -5 -4 -10 -10 -10 -5 0 -10 5 -10 10 0 6
5 10 10 10 6 0 10 -4 10 -10z"/>
<path d="M3430 8830 c-26 -49 19 -104 65 -80 48 26 33 93 -22 98 -24 2 -34 -2
-43 -18z"/>
<path d="M2649 8820 c-222 -38 -459 -162 -615 -322 -181 -185 -306 -450 -339
-720 -4 -27 -7 -48 -8 -48 -1 -1 -123 -3 -272 -6 -170 -3 -300 -11 -352 -20
-135 -24 -282 -88 -362 -157 -99 -85 -200 -252 -241 -399 -25 -87 -35 -225
-22 -288 10 -44 10 -45 12 -10 1 32 2 33 11 12 6 -15 5 -31 -2 -45 -9 -19 -7
-18 11 3 11 14 20 21 19 15 -3 -16 20 -71 83 -199 21 -44 37 -84 35 -89 -2 -6
-24 32 -50 84 -41 81 -56 92 -33 24 5 -13 2 -11 -8 5 -8 14 -23 48 -32 75 -10
28 -19 45 -21 38 -7 -21 57 -166 102 -227 49 -68 117 -142 157 -172 l26 -19
-21 -75 c-19 -69 -21 -101 -21 -410 -1 -418 13 -506 102 -629 26 -36 29 -46
19 -62 -14 -23 -21 -24 -40 -5 -12 12 -16 6 -26 -47 -16 -82 -34 -1124 -20
-1220 24 -173 117 -353 247 -480 93 -91 151 -134 262 -192 l95 -50 32 -83 c63
-159 127 -257 242 -373 192 -191 394 -290 655 -320 306 -36 654 95 882 333 91
95 123 139 187 258 83 154 116 274 124 455 5 119 -9 259 -33 338 -5 15 4 17
84 17 l89 0 7 -137 c8 -168 24 -239 75 -341 73 -146 128 -198 324 -309 79 -44
112 -57 165 -64 37 -4 526 -8 1088 -9 1169 0 1081 -6 1290 94 220 106 337 204
457 383 127 191 155 289 168 598 14 340 5 423 -65 564 -83 170 -233 272 -401
272 -142 1 -325 -118 -389 -254 -48 -102 -57 -165 -65 -427 -6 -230 -8 -247
-30 -286 -26 -47 -80 -92 -130 -110 -28 -10 -210 -13 -828 -14 l-793 0 0 88
c0 49 3 123 6 165 l7 77 103 0 c64 0 104 -4 104 -10 0 -22 52 -92 83 -110 94
-57 207 -18 273 96 11 18 31 19 534 19 494 0 523 1 534 18 9 15 7 22 -14 39
-21 17 -33 19 -80 13 -30 -4 -258 -4 -507 0 l-453 8 -30 53 c-36 65 -86 94
-157 94 -77 -1 -127 -29 -164 -95 l-31 -56 -102 3 -101 3 -3 236 -2 236 662
-1 663 -1 80 38 c68 33 92 52 165 130 47 50 116 122 153 160 55 54 67 72 62
89 -4 11 -73 87 -154 168 -110 111 -162 155 -211 181 l-65 34 -677 -4 -678 -4
0 247 0 246 105 0 105 0 15 -37 c35 -84 113 -129 209 -121 72 6 128 43 164
108 l27 50 169 -2 c157 -3 170 -4 180 -23 43 -78 92 -116 168 -130 77 -15 166
37 204 119 30 64 30 98 0 162 -39 84 -106 121 -202 111 -71 -7 -108 -35 -145
-109 l-30 -59 -172 5 -172 6 -30 57 c-25 49 -39 62 -85 86 -45 23 -65 28 -110
25 -76 -5 -144 -52 -174 -119 l-21 -49 -104 0 -103 0 7 173 c4 94 11 180 16
189 6 11 29 19 66 25 32 4 389 8 793 8 l735 0 37 -23 c21 -13 52 -42 70 -64
32 -41 32 -42 39 -189 4 -81 10 -163 14 -181 12 -55 45 -109 104 -171 71 -75
120 -109 207 -143 78 -31 114 -58 115 -88 0 -16 4 -13 15 12 10 23 27 38 52
48 139 57 174 79 240 148 43 46 81 99 107 150 36 71 40 88 43 168 l4 88 31 1
c18 1 203 3 412 3 256 1 398 6 435 14 280 62 578 242 722 436 74 99 131 197
152 260 9 27 19 53 22 58 11 17 43 -14 59 -57 10 -25 23 -45 30 -45 11 0 45
56 45 74 0 4 21 62 47 129 41 109 46 131 47 207 1 96 -10 124 -76 196 -85 92
-262 101 -374 18 -54 -40 -80 -116 -104 -304 -21 -172 -140 -351 -306 -460
-84 -55 -223 -117 -295 -130 -29 -6 -234 -10 -458 -10 l-406 0 -18 59 c-29 93
-108 204 -230 324 -168 166 -293 238 -502 288 -81 19 -114 19 -1062 17 l-978
-3 -78 -28 c-120 -42 -242 -106 -312 -163 -106 -88 -218 -252 -270 -395 -56
-156 -57 -167 -59 -784 l-2 -570 -139 3 c-77 2 -141 5 -141 5 -1 1 -4 34 -7
72 l-7 70 40 23 c52 29 74 72 67 130 -5 48 -51 106 -92 116 -29 7 -35 50 -35
245 l0 147 36 35 c48 46 64 79 64 134 0 56 -18 92 -64 133 -83 73 -213 46
-276 -58 -17 -26 -30 -38 -40 -34 -77 28 -241 80 -360 114 -194 55 -190 54
-190 90 0 81 -63 138 -189 169 -89 22 -102 23 -414 18 -339 -5 -370 -9 -483
-58 -80 -35 -194 -120 -246 -183 -28 -32 -66 -93 -86 -135 -21 -42 -39 -78
-42 -81 -3 -3 -6 -9 -7 -15 0 -5 -6 -37 -12 -69 -7 -36 -11 -205 -11 -426 l0
-367 -32 -56 c-18 -31 -37 -55 -42 -54 -18 6 -85 154 -97 217 -9 44 -13 167
-14 385 0 361 4 391 75 541 55 118 112 195 203 274 93 81 222 149 342 181 68
18 111 21 295 22 326 3 371 -2 456 -45 39 -20 98 -54 132 -76 35 -22 111 -56
174 -77 99 -33 128 -39 234 -43 225 -9 462 63 675 204 128 85 302 292 371 441
17 37 32 69 33 71 1 1 47 11 101 21 144 28 341 35 964 36 435 0 564 3 594 14
29 9 36 15 25 21 -27 15 -504 29 -1061 32 l-558 3 6 30 c3 17 8 53 12 80 7 42
11 50 27 47 11 -1 322 -7 690 -12 520 -8 686 -14 740 -25 39 -8 94 -18 124
-22 32 -5 57 -14 61 -23 4 -8 15 -32 25 -53 54 -111 214 -99 267 21 24 53 19
91 -18 140 -51 66 -121 78 -205 34 l-54 -28 -190 7 c-104 4 -474 8 -822 10
l-632 4 -8 70 -8 70 960 6 c943 5 961 6 1030 27 116 35 199 69 345 141 77 38
140 64 140 59 0 -5 -7 -22 -15 -38 -8 -16 -24 -67 -35 -112 -44 -182 -16 -219
97 -129 56 44 128 151 248 366 43 77 93 163 110 190 61 95 225 375 225 384 0
5 -12 12 -27 15 -66 14 -360 38 -633 51 -162 8 -323 18 -357 21 -101 11 -117
-23 -63 -125 60 -110 95 -148 167 -181 65 -30 66 -30 48 -50 -29 -32 -172
-120 -237 -147 -33 -13 -81 -28 -106 -33 -39 -7 -1318 -15 -1884 -11 l-166 1
-58 83 c-70 101 -190 226 -264 277 -80 54 -223 124 -316 153 -125 40 -312 56
-425 37z m323 -104 c93 -18 172 -49 274 -107 199 -114 383 -342 466 -578 22
-63 32 -151 18 -151 -6 0 -10 -8 -10 -17 0 -22 -40 62 -40 86 -1 9 -7 33 -14
54 -10 26 -10 37 -2 37 6 0 3 5 -6 11 -10 5 -18 15 -18 21 0 5 -11 32 -25 60
-14 27 -25 56 -25 63 0 7 -3 15 -8 17 -4 2 -37 41 -73 88 -128 164 -261 265
-414 314 -61 20 -170 35 -185 26 -23 -14 4 -41 59 -55 127 -35 261 -101 348
-172 104 -85 205 -241 268 -413 22 -62 28 -97 33 -199 11 -279 -55 -470 -227
-653 -123 -130 -264 -214 -436 -259 -111 -29 -335 -11 -440 36 -27 13 -71 32
-97 43 -73 32 -136 79 -222 167 -89 91 -126 145 -178 261 -102 224 -103 421
-4 678 30 80 127 229 168 259 15 11 30 33 33 48 7 29 34 47 45 29 4 -6 14 -2
26 11 58 66 225 161 304 175 25 4 96 7 158 5 61 -1 112 1 112 5 0 4 -5 23 -12
41 -11 30 -15 33 -54 33 -25 0 -49 -6 -58 -15 -8 -8 -29 -15 -46 -15 -123 0
-308 -74 -445 -180 -97 -73 -140 -120 -209 -225 -80 -120 -124 -219 -143 -315
-8 -47 -22 -108 -30 -135 -8 -28 -13 -69 -11 -90 2 -33 7 -41 25 -43 20 -3 21
-6 12 -24 -26 -48 38 -254 114 -368 47 -71 198 -238 216 -239 7 -1 11 -7 8
-15 -4 -10 2 -16 16 -18 14 -2 22 -10 22 -23 0 -13 6 -19 18 -17 9 2 20 -4 23
-12 6 -15 179 -106 200 -106 6 0 23 -14 40 -32 18 -19 23 -29 12 -25 -9 3 -36
11 -60 17 -82 22 -223 99 -321 175 -160 125 -279 290 -343 475 -85 244 -66
435 69 705 114 229 237 359 447 473 91 50 139 67 250 93 98 22 242 20 372 -5z
m3593 -31 c124 -8 246 -27 242 -38 -1 -5 -41 -26 -87 -46 -47 -20 -126 -60
-176 -89 -98 -56 -196 -102 -218 -102 -7 0 -27 26 -44 58 -35 66 -55 85 -137
137 -33 20 -70 47 -83 59 l-24 21 24 7 c23 6 357 2 503 -7z m-335 -307 c16
-18 30 -36 30 -39 0 -3 -37 -32 -82 -64 -46 -32 -106 -76 -134 -97 -67 -50
-140 -85 -233 -111 -75 -20 -92 -21 -981 -21 -1032 -1 -1003 -3 -1045 68 -14
24 -25 48 -25 54 0 9 218 10 858 6 956 -6 1112 -1 1240 42 84 28 175 78 267
148 33 25 63 46 68 46 4 0 21 -15 37 -32z m-1850 -384 c0 -2 -9 -4 -21 -4 -11
0 -18 4 -14 10 5 8 35 3 35 -6z m260 -20 c0 -8 10 -14 23 -15 12 0 16 -3 9 -6
-16 -6 -72 19 -72 34 0 6 8 9 20 6 11 -3 20 -12 20 -19z m537 -31 c-20 -2 -52
-2 -70 0 -17 2 0 4 38 4 39 0 53 -2 32 -4z m-3755 -285 c248 1 258 1 268 -19
6 -11 10 -39 8 -62 -3 -39 -5 -42 -30 -39 -29 4 -36 -6 -17 -25 9 -9 3 -15
-23 -26 -26 -11 -95 -16 -254 -20 -239 -6 -290 -14 -389 -65 -68 -34 -135 -82
-117 -82 10 0 10 -5 1 -22 -7 -13 -17 -26 -23 -30 -6 -4 -7 -10 -3 -14 4 -4
25 7 47 25 53 42 124 76 185 89 32 7 165 9 372 5 l322 -6 22 -51 c32 -76 86
-161 156 -248 35 -42 63 -80 63 -83 0 -3 -96 -5 -214 -5 -118 0 -249 -5 -291
-11 -228 -31 -460 -160 -607 -337 l-27 -33 -35 38 c-105 115 -146 262 -113
413 6 27 55 116 81 148 29 34 32 44 12 36 -10 -4 -12 2 -9 20 3 14 9 26 14 26
5 0 9 5 9 10 0 23 -19 6 -70 -61 l-54 -71 -4 -168 c-3 -133 -1 -180 12 -223 9
-30 16 -63 16 -74 1 -18 71 -103 86 -103 5 0 15 -4 22 -9 10 -6 4 -27 -29 -92
l-42 -83 -69 74 c-53 57 -84 103 -128 191 -71 142 -85 203 -75 324 3 50 8 115
10 145 2 30 10 72 19 92 19 44 20 52 4 42 -7 -4 -8 -3 -4 5 4 6 11 9 16 6 11
-7 22 24 13 37 -3 6 -1 8 4 5 13 -8 26 20 16 35 -4 7 -1 8 6 4 7 -5 19 0 27
10 15 18 15 18 10 -1 -4 -14 1 -11 16 10 13 16 47 52 77 80 102 93 121 113
121 124 0 27 116 64 130 41 4 -6 20 -7 40 -3 28 5 31 8 15 13 -15 6 -6 9 30
14 28 4 57 9 65 10 8 2 24 1 34 -2 11 -2 136 -4 278 -4z m7515 -247 c62 -29
96 -85 98 -166 2 -48 -1 -65 -11 -65 -7 0 -16 -4 -19 -10 -3 -6 1 -7 9 -4 22
8 20 -12 -1 -22 -10 -4 -21 -6 -25 -6 -13 3 -9 -16 5 -22 6 -3 2 -3 -10 0 -29
7 -83 -24 -83 -47 0 -20 -32 -33 -75 -30 -35 2 -68 31 -102 89 -22 37 -25 52
-21 111 4 85 36 138 100 170 53 26 81 26 135 2z m-2597 -285 c100 -22 209 -63
270 -102 86 -57 258 -238 311 -330 57 -97 71 -151 70 -281 0 -29 3 -53 7 -53
5 0 14 -51 20 -112 14 -130 6 -274 -14 -282 -13 -5 -16 2 -29 64 -13 68 -20
85 -39 109 -50 61 -89 91 -141 107 l-55 18 0 41 c0 212 -127 381 -372 493
-170 79 -120 76 -1053 68 -877 -7 -872 -7 -995 -55 -83 -33 -147 -80 -195
-144 -95 -125 -105 -206 -105 -873 l0 -481 -42 -16 c-34 -13 -65 -15 -151 -10
l-108 6 4 601 c3 666 1 644 72 791 104 217 295 374 529 435 67 18 128 19 1011
19 763 1 952 -2 1005 -13z m2369 -143 c25 -27 46 -51 47 -55 1 -5 2 -21 3 -38
0 -16 6 -30 12 -30 5 0 7 5 4 10 -3 6 -1 10 4 10 15 0 15 -2 -20 -76 -17 -36
-37 -68 -45 -71 -8 -3 -12 -8 -10 -12 2 -3 -7 -20 -20 -36 -18 -23 -24 -26
-24 -12 0 9 -4 17 -10 17 -5 0 -10 -15 -10 -33 0 -27 -10 -44 -52 -86 -107
-106 -286 -209 -453 -260 -167 -51 -203 -54 -452 -47 -126 4 -237 7 -248 8
-11 1 -84 -2 -162 -7 l-142 -8 0 102 0 101 77 1 c42 1 230 2 417 4 284 1 351
5 405 19 85 22 256 104 334 160 117 84 232 226 272 336 10 27 20 50 23 50 2 0
25 -21 50 -47z m-2411 -222 c74 -33 206 -131 248 -183 44 -56 91 -178 100
-260 l7 -66 -55 -40 c-73 -54 -126 -117 -139 -166 -15 -55 -6 -169 16 -202 9
-15 30 -31 46 -37 16 -6 29 -15 29 -19 0 -10 -46 8 -87 33 -18 11 -49 48 -70
82 l-38 62 -5 150 c-5 145 -6 153 -38 217 -37 75 -79 113 -169 156 l-58 27
-770 -3 c-423 -2 -785 -7 -804 -12 -47 -13 -111 -59 -123 -90 -9 -23 -14 -193
-17 -572 -1 -98 -5 -158 -11 -158 -5 0 -11 17 -11 38 -1 20 -3 29 -6 20 -3
-12 -14 -18 -34 -18 -22 0 -29 -5 -29 -20 0 -11 -7 -20 -15 -20 -8 0 -15 -9
-15 -20 0 -11 -4 -20 -10 -20 -5 0 -10 -9 -10 -20 0 -13 -7 -20 -20 -20 -15 0
-20 -7 -20 -29 0 -57 -12 -91 -31 -91 -11 0 -19 -4 -19 -10 0 -5 5 -10 10 -10
6 0 10 -4 10 -10 0 -5 -9 -10 -20 -10 -12 0 -20 -7 -20 -17 0 -13 -3 -14 -12
-5 -8 8 -9 21 -1 47 6 19 7 33 2 29 -9 -5 -16 382 -12 706 3 184 25 349 43
320 6 -9 10 -7 15 9 3 11 3 25 0 31 -3 5 -2 10 4 10 10 0 23 29 18 41 -3 10
34 49 73 75 19 13 47 33 61 45 15 12 51 30 80 40 51 18 100 18 954 16 l900 -2
53 -24z m-4064 -160 c3 -5 -1 -22 -9 -37 -8 -16 -15 -35 -15 -42 0 -22 -62
-51 -230 -106 -91 -30 -200 -71 -244 -90 -43 -20 -80 -35 -81 -34 -1 2 -11 24
-23 49 -11 26 -36 59 -58 75 -34 26 -45 29 -117 29 l-79 0 -37 -42 c-74 -83
-77 -175 -9 -249 l40 -44 -1 -107 c-1 -60 -4 -149 -7 -199 l-7 -91 -47 -20
c-65 -28 -84 -59 -81 -135 1 -31 60 -103 92 -113 16 -5 19 -16 19 -66 0 -32
-3 -59 -7 -59 -3 0 -30 12 -60 26 -36 18 -76 28 -123 32 l-70 5 -2 236 c-6
493 1 571 63 693 73 145 250 269 414 291 63 8 674 7 679 -2z m97 -37 c11 -14
10 -19 -11 -36 -27 -22 -36 -13 -26 27 7 29 18 31 37 9z m-88 -140 c8 -8 -19
-92 -70 -218 -54 -134 -52 -129 -66 -118 -7 5 -57 23 -112 41 -55 18 -147 49
-204 68 l-103 36 35 18 c66 35 272 111 361 135 48 13 95 28 105 34 18 11 45
13 54 4z m322 -25 c129 -25 464 -144 448 -160 -16 -16 -242 -99 -269 -99 -15
0 -35 -6 -43 -14 -9 -7 -41 -23 -71 -34 -30 -11 -62 -23 -71 -27 -14 -5 -23
11 -48 82 -18 48 -46 123 -63 165 -26 65 -29 79 -18 93 13 16 23 16 135 -6z
m-1077 -39 c32 -19 44 -50 20 -50 -7 0 -37 -12 -67 -25 -43 -20 -56 -23 -63
-13 -13 20 0 61 28 86 31 27 40 27 82 2z m903 -85 c20 -55 48 -126 63 -158 14
-32 26 -64 26 -72 0 -7 -16 -19 -35 -25 -30 -10 -40 -9 -61 5 -20 13 -37 15
-73 10 -33 -4 -59 -2 -85 9 -42 17 -46 38 -17 94 10 20 35 80 56 132 46 117
42 112 68 108 18 -2 29 -22 58 -103z m840 74 c10 -19 6 -27 -29 -62 -45 -44
-72 -45 -72 -1 0 64 75 111 101 63z m-1471 -213 c52 -19 108 -41 124 -49 27
-15 27 -15 6 -19 -14 -2 -30 -17 -41 -36 -9 -19 -24 -41 -33 -51 -9 -10 -16
-21 -16 -26 0 -14 -43 -55 -58 -55 -16 0 -39 25 -88 100 -21 30 -48 67 -62 83
l-26 27 35 36 c20 20 40 33 49 30 8 -3 58 -21 110 -40z m1315 14 c21 -24 19
-31 -44 -122 -74 -108 -89 -124 -99 -113 -73 79 -132 149 -132 156 0 13 36 30
140 65 114 39 112 39 135 14z m3688 -4 c42 -18 71 -51 98 -110 18 -41 20 -60
15 -110 -7 -64 -32 -127 -55 -134 -9 -3 -11 0 -6 8 6 10 0 11 -26 6 -97 -18
-114 -17 -159 6 -63 33 -90 77 -90 149 0 69 12 104 48 143 50 53 113 68 175
42z m-3529 -69 c12 -45 6 -373 -7 -390 -11 -16 -22 -12 -127 48 -63 36 -116
70 -118 75 -2 5 4 24 14 42 26 52 152 225 175 241 26 19 56 11 63 -16z m1696
-3 c45 -41 50 -61 18 -88 l-22 -19 23 -8 c13 -5 19 -14 15 -20 -3 -6 0 -15 7
-20 10 -6 11 -9 2 -9 -7 0 -13 -9 -13 -19 0 -28 -76 -39 -117 -17 -50 25 -79
127 -52 177 11 22 66 59 86 59 7 0 31 -16 53 -36z m-3343 -104 c45 -63 83
-120 83 -126 0 -18 -204 -174 -229 -174 -6 0 -14 12 -17 26 -9 33 1 368 11
384 4 6 21 10 38 8 28 -3 42 -17 114 -118z m4093 105 c45 -23 59 -60 46 -117
-35 -150 -177 -122 -179 35 -1 42 3 53 27 73 31 28 65 30 106 9z m-3655 -30
c71 -21 78 -27 66 -56 -5 -13 -22 -57 -36 -97 l-27 -73 -88 -44 -88 -44 -19
22 c-34 37 -73 101 -73 118 0 10 30 41 66 69 45 35 72 65 83 91 18 44 14 43
116 14z m760 -42 c21 -27 58 -69 83 -95 l45 -47 -36 -49 c-41 -55 -67 -80 -67
-64 0 6 -35 25 -77 42 -43 18 -86 39 -96 48 -15 14 -57 127 -57 156 0 13 102
53 141 55 20 1 35 -10 64 -46z m-585 -33 c47 -24 54 -34 41 -58 -10 -19 -131
-88 -131 -74 0 13 43 152 47 152 2 0 21 -9 43 -20z m328 -52 c6 -28 10 -53 7
-56 -8 -8 -95 49 -95 63 0 14 44 44 65 45 6 0 16 -23 23 -52z m-178 21 c0 -5
-11 -9 -25 -9 -24 0 -32 10 -19 22 8 8 44 -3 44 -13z m278 -268 l53 -102 -34
-52 c-19 -29 -65 -105 -103 -171 -37 -65 -74 -121 -82 -124 -8 -3 -34 5 -58
17 -60 28 -87 27 -127 -9 -19 -16 -40 -30 -46 -30 -6 0 -23 19 -38 43 -14 23
-43 65 -64 92 -20 28 -60 87 -88 132 l-50 81 27 79 c15 43 32 85 37 94 6 9 51
37 102 63 87 45 95 47 146 41 39 -5 62 -3 82 8 26 13 33 12 109 -23 l81 -37
53 -102z m-841 15 c16 -23 48 -63 73 -89 25 -27 46 -52 48 -57 2 -5 -9 -45
-23 -88 l-26 -80 -27 13 c-15 7 -60 27 -100 45 -40 19 -71 38 -69 44 15 40 18
58 9 52 -5 -3 -12 1 -16 9 -8 23 -26 18 -26 -7 0 -43 -14 -52 -51 -33 -127 64
-129 97 -11 168 46 28 95 65 110 83 l27 33 27 -26 c15 -15 40 -45 55 -67z
m1278 10 c93 -63 124 -93 125 -123 0 -10 -157 -103 -174 -103 -3 0 -12 15 -20
34 -14 35 -87 96 -113 96 -20 0 -17 -5 37 -72 28 -34 50 -67 50 -73 0 -11 -92
-45 -123 -45 -8 0 -19 9 -22 21 -4 11 -21 43 -38 70 l-31 50 56 57 c30 31 65
73 78 92 34 52 63 81 69 71 3 -4 51 -38 106 -75z m3540 74 c3 -5 16 -10 28
-10 12 0 29 -5 37 -10 11 -7 5 -8 -20 -4 -19 4 -39 10 -45 14 -5 4 -19 10 -30
13 -19 4 -18 5 2 6 12 0 25 -3 28 -9z m-3870 -34 c30 -14 55 -27 55 -31 0 -9
-52 -85 -59 -85 -9 0 -29 35 -51 90 -11 28 -15 50 -10 50 5 0 34 -11 65 -24z
m-762 -43 c-14 -32 -28 -60 -30 -62 -2 -3 -13 5 -26 17 -27 28 -17 47 39 79
21 13 40 23 41 23 1 0 -10 -26 -24 -57z m1271 -224 c42 -30 44 -33 39 -73 -3
-22 -6 -42 -7 -43 -1 -1 -31 13 -66 30 -36 18 -78 37 -95 43 l-30 10 55 31
c30 17 56 31 57 32 1 0 22 -13 47 -30z m-467 -95 c-1 -1 -34 -17 -72 -34 -39
-17 -80 -41 -92 -52 -52 -49 -7 60 62 150 l38 51 34 -56 c18 -31 32 -57 30
-59z m-1269 87 c39 -13 48 -20 35 -24 -10 -4 -47 -22 -83 -41 -36 -20 -68 -36
-72 -36 -5 0 -8 11 -8 25 0 22 53 95 69 95 3 -1 30 -9 59 -19z m517 -97 c36
-54 63 -100 60 -102 -2 -2 -41 16 -87 39 -46 24 -85 45 -86 46 -2 1 6 29 19
62 12 34 24 60 26 57 2 -2 33 -48 68 -102z m-273 -17 c43 -18 78 -36 78 -41 0
-5 -21 -48 -47 -95 -100 -183 -154 -287 -164 -313 -10 -26 -15 -28 -68 -28
-101 0 -166 -69 -166 -175 1 -125 104 -203 219 -165 84 27 130 92 124 176 l-3
53 110 54 c61 30 175 93 255 141 79 47 148 86 153 86 4 0 26 -29 48 -65 23
-36 45 -65 49 -65 10 0 -19 79 -37 101 -20 24 -16 34 17 36 17 1 54 18 84 38
29 19 56 35 61 35 4 0 26 17 50 38 48 41 289 171 300 160 4 -3 9 -24 12 -46 5
-39 4 -40 -33 -52 -156 -51 -361 -209 -442 -340 -11 -20 -40 -51 -63 -69 -49
-40 -89 -119 -89 -176 l0 -41 -101 -33 c-321 -105 -561 -309 -709 -601 -31
-61 -64 -162 -80 -243 l-14 -68 -64 63 c-75 74 -112 141 -118 212 -2 28 -6
268 -8 534 l-6 482 38 0 c68 0 112 19 165 73 29 29 58 61 65 72 12 19 12 18 8
-9 -10 -70 26 -226 53 -226 4 0 -2 44 -14 98 -12 53 -25 149 -28 213 l-5 117
46 25 c54 29 143 66 187 77 35 9 36 9 137 -33z m1418 -6 l95 -49 -110 -6 c-60
-4 -129 -11 -152 -16 -72 -17 -91 -13 -113 23 -11 17 -19 36 -17 41 4 12 136
54 172 54 17 1 71 -20 125 -47z m2676 -13 c27 -15 254 -248 254 -261 0 -3 -35
-4 -77 -3 l-77 1 -19 49 c-24 65 -70 122 -121 149 -32 17 -58 22 -121 22 -70
0 -86 -4 -128 -28 -51 -30 -105 -96 -114 -138 -5 -26 -5 -26 -126 -31 -67 -3
-318 -6 -557 -7 l-435 -2 -12 43 c-15 56 -90 133 -160 164 -46 21 -63 40 -49
55 2 2 388 4 858 4 775 -1 856 -2 884 -17z m-4685 -39 c21 -7 52 -27 70 -45
26 -27 33 -43 37 -88 4 -48 1 -58 -21 -79 -30 -31 -101 -44 -151 -27 -44 14
-93 69 -102 115 -8 45 19 94 66 117 41 21 50 22 101 7z m839 -52 c135 -61 156
-73 180 -104 21 -27 21 -28 3 -41 -117 -84 -465 -275 -491 -270 -11 3 -16 12
-14 28 4 35 203 430 216 430 7 0 54 -19 106 -43z m2137 -46 c106 -49 113 -215
12 -275 -62 -36 -157 -10 -211 59 -31 39 -31 122 -2 162 53 71 122 89 201 54z
m1608 0 c23 -10 53 -33 68 -50 37 -45 38 -124 2 -181 -38 -60 -64 -73 -135
-68 -72 5 -106 27 -137 88 -46 89 -20 166 72 214 39 21 81 20 130 -3z m-1889
-13 c-8 -13 -20 -42 -27 -65 l-12 -43 -251 0 c-361 -1 -616 -15 -702 -38 -73
-19 -189 -71 -180 -80 3 -2 22 4 43 14 34 16 73 26 73 18 0 -1 -8 -10 -17 -20
-17 -17 -17 -17 3 -12 14 4 -6 -22 -55 -71 -82 -81 -122 -135 -164 -218 -15
-28 -31 -54 -37 -58 -6 -4 -51 -3 -101 1 l-90 7 6 26 c3 14 28 72 55 128 79
163 199 274 376 352 156 67 251 78 742 80 l352 1 -14 -22z m-2959 -171 c15
-18 44 -41 64 -51 34 -18 37 -23 44 -80 4 -34 9 -269 10 -524 3 -339 7 -473
16 -500 7 -20 14 -42 15 -49 5 -31 84 -117 168 -183 l66 -52 0 -64 c0 -75 -9
-83 -72 -65 -28 9 -44 9 -51 2 -11 -11 -47 3 -47 20 0 6 7 6 19 -1 24 -12 31
-13 31 -1 0 15 -40 24 -54 12 -10 -8 -17 -7 -27 6 -12 15 -12 16 1 8 13 -8 13
-7 1 8 -15 18 -26 23 -16 7 3 -5 2 -10 -4 -10 -19 0 -120 132 -160 209 -78
151 -76 129 -76 741 0 300 4 557 8 573 10 36 29 34 64 -6z m3986 -14 c-35 -2
-91 -2 -125 0 -35 2 -7 3 62 3 69 0 97 -1 63 -3z m-1184 -27 c9 -10 10 -28 4
-57 -7 -35 -13 -44 -36 -50 -15 -4 -213 -10 -440 -14 l-412 -7 30 26 c17 14
80 42 140 62 107 36 115 37 315 44 353 12 386 12 399 -4z m-2119 -184 l22 -17
-51 -43 c-62 -53 -86 -52 -85 1 2 68 63 100 114 59z m1256 -9 c34 -16 83 -18
412 -21 l372 -3 -1 -322 c0 -325 -7 -418 -28 -425 -20 -7 29 -52 55 -52 31 0
135 25 209 49 67 23 105 26 105 11 0 -16 -50 -59 -94 -82 -85 -43 -133 -51
-305 -50 -179 2 -181 2 -181 59 0 26 5 34 25 39 14 3 23 10 20 14 -3 5 3 11
12 13 12 3 9 5 -8 6 -62 3 -86 21 -165 127 -151 204 -287 306 -557 419 -37 16
-66 31 -65 34 51 107 83 164 104 180 32 25 41 26 90 4z m3939 -24 c140 -39
197 -174 128 -307 -48 -95 -154 -144 -240 -111 -38 14 -90 65 -114 111 -38 75
-19 222 35 263 73 56 114 65 191 44z m-4441 -88 c-4 -33 -11 -51 -20 -51 -18
0 -18 21 2 70 21 52 27 46 18 -19z m1677 -58 c18 -45 4 -295 -21 -374 -36
-117 -78 -160 -195 -199 -35 -12 -66 -27 -69 -33 -3 -7 -4 122 -3 285 1 163 5
299 8 303 4 3 56 11 118 18 61 6 111 15 111 19 0 4 9 8 20 8 13 0 24 -10 31
-27z m2434 -111 c0 -86 0 -88 41 -145 40 -57 133 -137 158 -137 7 0 21 -9 31
-20 16 -18 17 -31 6 -197 -13 -193 -20 -232 -58 -307 -33 -64 -112 -149 -132
-141 -8 3 -12 3 -9 -1 18 -17 -93 -85 -197 -119 l-80 -27 -860 1 c-473 1 -887
4 -919 8 -49 5 -56 8 -43 18 9 7 13 16 9 20 -4 5 1 5 11 2 12 -5 17 -1 17 13
0 13 7 20 20 20 11 0 20 5 20 10 0 6 7 10 15 10 8 0 15 4 15 9 0 16 58 71 74
71 9 0 16 8 16 20 0 11 5 20 11 20 6 0 9 6 6 14 -4 11 8 16 46 21 29 4 372 8
762 9 l710 1 63 29 c70 33 127 90 164 164 22 45 23 61 29 327 5 259 7 284 28
338 33 83 46 74 46 -31z m-3880 2 c99 -20 186 -52 280 -104 245 -135 449 -411
504 -681 17 -82 27 -256 19 -322 -8 -62 -56 -225 -81 -273 -9 -17 -22 -36 -31
-43 -8 -7 -20 -29 -27 -48 -6 -20 -25 -56 -43 -80 -17 -25 -36 -55 -43 -67
-16 -29 -96 -102 -134 -121 -28 -15 -29 -15 -29 9 0 24 -23 56 -40 56 -5 0
-21 -10 -36 -23 l-27 -23 38 -38 c20 -20 35 -39 33 -41 -1 -1 -26 -16 -54 -33
-39 -23 -55 -27 -63 -19 -9 9 -11 8 -6 -4 5 -13 -13 -25 -77 -57 -139 -67
-217 -87 -338 -86 -126 1 -305 35 -370 69 -25 14 -69 34 -99 45 -114 44 -295
199 -379 325 -84 126 -162 326 -182 463 -29 207 37 454 178 665 54 80 204 227
293 286 124 81 285 141 444 165 48 7 183 -3 270 -20z m2315 -264 c11 -21 2
-43 -44 -107 l-23 -32 -17 35 c-22 46 -20 57 10 93 30 36 59 40 74 11z m-849
-637 c11 -47 10 -55 -5 -72 -11 -12 -25 -16 -41 -13 -16 3 -27 -1 -31 -11 -3
-9 -18 -18 -33 -22 -27 -6 -32 -15 -76 -133 l-12 -34 -26 45 c-59 100 -92 231
-85 340 l3 58 95 40 c52 22 109 45 125 51 17 6 37 17 45 25 13 12 16 0 22
-104 3 -65 12 -142 19 -170z"/>
<path d="M2611 8550 c-176 -47 -383 -203 -479 -363 -45 -75 -91 -188 -108
-267 -18 -86 -18 -309 0 -378 30 -112 119 -273 194 -350 55 -56 212 -164 287
-197 161 -71 414 -71 571 0 168 76 344 242 422 400 52 104 65 174 66 335 0
177 -11 235 -74 365 -91 189 -206 307 -383 390 -182 86 -336 106 -496 65z
m200 -42 c18 -19 386 -567 472 -705 33 -52 33 -59 5 -67 -13 -3 -79 -38 -148
-79 -218 -129 -326 -187 -345 -187 -22 0 -188 84 -301 151 -45 27 -111 63
-147 80 -52 24 -65 34 -60 47 12 32 167 277 308 487 78 116 152 229 165 253
13 23 25 42 26 42 2 0 13 -10 25 -22z m-406 -901 c104 -65 273 -162 328 -188
l47 -23 58 28 c31 15 91 47 132 71 41 23 98 55 125 70 28 15 80 47 116 71 61
42 99 50 99 22 0 -6 -46 -71 -102 -145 -57 -75 -165 -219 -241 -322 -76 -102
-146 -190 -154 -195 -22 -12 -30 -2 -292 347 -218 292 -264 363 -208 323 12
-8 54 -35 92 -59z"/>
<path d="M2801 8328 c1 -51 4 -151 8 -222 l6 -128 91 -33 c51 -18 139 -55 198
-83 58 -28 106 -47 106 -43 0 5 -53 87 -117 182 -64 96 -152 227 -195 291 -43
64 -82 119 -88 123 -6 4 -10 -26 -9 -87z"/>
<path d="M2725 7916 c-60 -19 -323 -134 -348 -151 -16 -11 -18 -15 -6 -15 9 0
37 -16 63 -36 39 -30 326 -184 343 -184 2 0 3 90 1 200 -1 110 -5 200 -8 199
-3 0 -23 -6 -45 -13z"/>
<path d="M2810 7730 c0 -110 2 -200 4 -200 2 0 57 30 122 66 66 37 158 86 207
110 l87 42 -32 20 c-60 36 -359 162 -385 162 -1 0 -3 -90 -3 -200z"/>
<path d="M3165 7570 c-9 -14 -143 -101 -261 -168 -82 -47 -92 -56 -98 -87 -9
-45 -5 -245 4 -245 4 0 20 19 35 41 15 23 97 136 182 251 85 115 153 212 150
214 -3 3 -8 0 -12 -6z"/>
<path d="M1079 7211 c-33 -34 -39 -83 -14 -131 19 -37 43 -50 92 -50 92 1 138
111 74 179 -24 26 -36 31 -76 31 -38 0 -52 -5 -76 -29z m101 -70 c0 -32 -24
-48 -46 -30 -26 22 -8 59 28 59 13 0 18 -8 18 -29z"/>
<path d="M1542 7220 c-27 -26 -28 -64 -2 -90 26 -26 52 -25 78 3 29 31 28 61
-4 86 -33 26 -45 26 -72 1z"/>
<path d="M674 6810 c5 -40 35 -115 42 -107 3 3 0 16 -7 29 -7 12 -18 43 -26
68 -11 39 -12 41 -9 10z"/>
<path d="M8055 6384 c-96 -27 -200 -34 -542 -34 -343 -1 -432 -8 -225 -19 218
-12 762 3 774 21 4 7 8 9 8 3 0 -5 5 -2 11 8 6 10 20 22 32 27 34 14 -2 10
-58 -6z"/>
<path d="M6684 6054 c-37 -18 -64 -62 -64 -103 0 -23 10 -43 38 -71 50 -52 72
-57 110 -25 58 49 65 127 15 185 -28 33 -53 37 -99 14z"/>
<path d="M5618 5923 c-10 -2 -18 -7 -18 -9 0 -13 31 -34 50 -34 16 0 21 5 18
22 -3 23 -19 30 -50 21z"/>
<path d="M1332 4388 c-30 -30 11 -51 62 -32 23 9 20 19 -9 32 -32 15 -38 15
-53 0z"/>
<path d="M1275 4289 c-50 -40 -17 -139 47 -139 86 0 93 119 9 148 -25 9 -34 7
-56 -9z"/>
<path d="M5640 5107 c-21 -10 -26 -21 -28 -60 -3 -39 1 -51 22 -72 52 -52 130
-20 143 58 9 56 -16 87 -70 87 -23 0 -53 -6 -67 -13z"/>
<path d="M3224 4610 c-11 -4 -33 -23 -48 -41 -24 -28 -27 -39 -23 -78 8 -67
49 -101 123 -101 48 0 59 4 85 29 25 25 29 37 29 81 0 46 -4 56 -34 86 -27 27
-42 34 -72 33 -22 0 -48 -4 -60 -9z m70 -76 c38 -37 0 -96 -46 -72 -21 10 -24
58 -6 76 16 16 33 15 52 -4z"/>
<path d="M3386 4364 c-20 -19 -21 -68 -2 -83 18 -15 49 -1 72 34 31 47 -29 90
-70 49z"/>
<path d="M6672 4624 c-49 -34 -67 -116 -37 -174 9 -18 30 -34 59 -45 43 -17
47 -17 77 1 50 30 74 69 73 120 -2 86 -105 145 -172 98z"/>
<path d="M2344 4436 c-3 -8 -4 -25 -2 -38 2 -19 10 -23 44 -26 35 -3 42 0 47
17 11 43 -3 61 -44 61 -25 0 -42 -5 -45 -14z"/>
<path d="M2536 4421 c-4 -6 -1 -23 6 -38 10 -22 21 -29 51 -31 33 -3 37 -1 37
21 0 14 -6 30 -13 36 -21 17 -74 25 -81 12z"/>
<path d="M2168 4409 c-35 -20 -15 -69 28 -69 30 0 48 24 40 55 -7 27 -36 33
-68 14z"/>
<path d="M1994 4360 c-32 -13 -39 -42 -14 -62 32 -26 65 -10 65 33 0 36 -14
44 -51 29z"/>
<path d="M2720 4344 c-14 -35 -14 -33 27 -50 34 -15 38 -15 50 2 21 28 16 54
-13 64 -40 15 -54 12 -64 -16z"/>
<path d="M2250 4308 c-191 -40 -315 -106 -445 -235 -211 -210 -291 -505 -214
-785 40 -144 144 -308 258 -405 150 -128 329 -195 525 -196 205 0 346 57 547
219 107 87 197 235 241 395 30 113 30 306 0 420 -79 295 -337 537 -626 588
-72 13 -224 13 -286 -1z m216 -146 c26 -42 93 -142 149 -222 56 -80 134 -199
175 -265 41 -66 82 -131 92 -144 45 -60 3 -68 -82 -16 -66 40 -366 155 -405
155 -13 0 -124 -39 -245 -87 l-219 -87 42 -16 c39 -15 96 -46 247 -135 67 -40
136 -75 147 -75 4 0 7 78 5 173 -2 97 1 184 7 197 7 18 10 -35 10 -177 1 -139
4 -203 12 -203 6 0 60 27 121 60 112 60 208 103 263 116 17 3 -4 -11 -45 -33
-83 -43 -207 -117 -286 -169 -28 -19 -54 -34 -59 -34 -11 0 -220 115 -322 176
-40 24 -76 44 -80 44 -11 0 -113 64 -113 71 0 6 95 149 400 602 88 131 116
165 126 156 7 -6 34 -45 60 -87z m417 -794 c-11 -13 -62 -84 -114 -158 -51
-74 -130 -180 -174 -235 -45 -55 -100 -126 -123 -157 -23 -32 -52 -63 -64 -69
-20 -11 -25 -9 -43 16 -11 16 -76 101 -145 191 -139 181 -238 312 -289 386
-34 49 -36 74 -4 46 26 -22 223 -143 323 -198 47 -25 94 -52 105 -59 18 -12
33 -6 135 49 152 83 278 156 317 186 18 13 42 28 55 33 34 13 46 -4 21 -31z"/>
<path d="M2406 4137 c-3 -12 -6 -110 -6 -217 l0 -196 28 -11 c15 -6 79 -31
142 -56 63 -24 146 -58 183 -75 l68 -31 -22 37 c-12 20 -30 46 -40 57 -24 28
-165 235 -264 387 -69 107 -84 124 -89 105z"/>
<path d="M2733 3272 c-17 -15 -64 -45 -105 -66 -40 -21 -111 -62 -157 -90
l-83 -51 6 -113 c7 -152 14 -161 61 -87 33 51 141 196 240 320 31 39 80 115
73 115 -2 -1 -17 -13 -35 -28z"/>
<path d="M1797 4242 c-21 -23 -22 -58 -1 -66 28 -11 43 -6 59 18 32 48 -20 90
-58 48z"/>
<path d="M2923 4234 c-21 -32 -8 -58 30 -62 34 -4 55 34 38 67 -16 29 -47 26
-68 -5z"/>
<path d="M3078 4099 c-28 -16 -23 -65 7 -85 57 -37 102 27 52 74 -26 24 -34
26 -59 11z"/>
<path d="M1631 4061 c-16 -28 -14 -46 7 -64 17 -16 20 -15 41 7 31 33 25 70
-11 74 -18 2 -30 -3 -37 -17z"/>
<path d="M3202 3924 c-25 -17 -29 -51 -8 -79 28 -38 66 13 52 70 -7 29 -14 31
-44 9z"/>
<path d="M1525 3888 c-13 -31 -13 -34 7 -51 22 -18 22 -18 41 18 14 29 16 40
6 51 -19 23 -39 16 -54 -18z"/>
<path d="M1473 3734 c-27 -30 -29 -56 -7 -78 19 -20 28 -20 43 -2 14 17 11 98
-4 103 -5 1 -20 -9 -32 -23z"/>
<path d="M3226 3731 c-8 -12 17 -76 33 -85 6 -4 20 -2 31 4 17 9 20 19 18 48
-3 35 -5 37 -40 40 -20 2 -39 -1 -42 -7z"/>
<path d="M1447 3543 c-4 -3 -7 -23 -7 -44 0 -29 5 -39 20 -44 12 -4 27 -1 35
5 20 17 19 76 -1 84 -20 8 -39 8 -47 -1z"/>
<path d="M3283 3543 c-14 -3 -24 -14 -28 -35 -9 -38 4 -50 46 -46 32 3 34 5
34 43 0 42 -7 47 -52 38z"/>
<path d="M3241 3312 c-19 -89 16 -126 53 -57 10 19 22 32 26 30 4 -2 4 13 1
33 -6 33 -10 37 -38 40 -30 3 -32 1 -42 -46z"/>
<path d="M3342 3340 c0 -14 2 -19 5 -12 2 6 2 18 0 25 -3 6 -5 1 -5 -13z"/>
<path d="M1470 3325 c0 -14 7 -41 14 -60 27 -63 55 -35 40 38 -7 33 -14 43
-32 45 -18 3 -22 -1 -22 -23z"/>
<path d="M1556 3111 c-36 -40 5 -80 49 -47 17 12 18 17 7 40 -14 31 -32 33
-56 7z"/>
<path d="M3160 3109 c-16 -29 -5 -63 24 -77 21 -9 26 -8 40 13 19 29 20 57 4
73 -19 19 -56 14 -68 -9z"/>
<path d="M3058 2955 c-23 -31 -23 -52 1 -65 29 -15 37 -13 49 15 14 31 17 78
3 57 -7 -11 -9 -11 -14 2 -9 22 -19 20 -39 -9z"/>
<path d="M1668 2959 c-38 -21 -14 -69 34 -69 35 0 38 27 6 58 -17 15 -27 18
-40 11z"/>
<path d="M1801 2813 c-5 -10 -11 -29 -12 -43 -3 -19 2 -26 23 -34 54 -19 82
46 33 78 -30 20 -32 20 -44 -1z"/>
<path d="M2738 2694 c-35 -19 -35 -28 2 -54 52 -37 101 4 58 49 -22 25 -25 25
-60 5z"/>
<path d="M1977 2693 c-4 -3 -7 -19 -7 -33 0 -35 50 -61 75 -40 25 20 19 59
-11 70 -30 12 -48 13 -57 3z"/>
<path d="M2166 2624 c-19 -19 -20 -25 -3 -48 19 -26 61 -18 65 13 3 15 -3 30
-14 38 -23 17 -29 16 -48 -3z"/>
<path d="M2543 2629 c-12 -12 -7 -77 7 -92 4 -4 25 9 48 30 33 31 39 41 31 56
-11 19 -68 24 -86 6z"/>
<path d="M2340 2618 c0 -7 -3 -22 -6 -34 -7 -28 20 -54 56 -54 29 0 40 15 40
56 0 17 -8 27 -26 34 -35 14 -64 12 -64 -2z"/>
<path d="M5440 8738 c-50 -34 -72 -83 -67 -146 10 -139 184 -179 257 -59 25
40 25 90 0 144 -35 78 -123 106 -190 61z"/>
<path d="M3654 8692 c-25 -16 -34 -50 -23 -76 16 -33 44 -42 74 -22 33 21 34
69 3 90 -25 18 -37 19 -54 8z"/>
<path d="M1645 8536 c-36 -55 1 -115 53 -86 32 19 39 52 18 86 -21 31 -51 31
-71 0z"/>
<path d="M4347 8529 c-15 -11 -27 -30 -27 -43 0 -27 26 -66 45 -66 20 0 45 40
45 71 0 14 -8 33 -18 43 -18 15 -21 15 -45 -5z"/>
<path d="M1276 8367 c-21 -12 -53 -42 -70 -65 -27 -39 -31 -52 -31 -112 0 -61
3 -72 31 -106 55 -69 77 -79 163 -79 70 0 81 3 114 28 97 74 102 223 11 309
-58 54 -150 64 -218 25z m123 -75 c45 -24 76 -79 67 -116 -11 -46 -58 -86
-101 -86 -88 0 -135 133 -73 207 15 19 68 16 107 -5z"/>
<path d="M660 8065 c0 -100 4 -116 26 -96 5 5 23 11 39 14 27 4 26 4 -8 6
l-37 1 6 54 c4 30 2 68 -4 85 -10 28 -9 30 16 34 24 4 24 4 -5 6 l-33 1 0
-105z"/>
<path d="M863 8103 c4 -38 7 -84 7 -104 l0 -36 60 -2 c53 -1 60 1 60 18 0 16
-6 18 -45 13 l-45 -5 0 34 c-1 19 -3 51 -6 71 -3 20 0 46 6 57 10 19 8 21 -16
21 l-27 0 6 -67z"/>
<path d="M965 8080 c-3 -5 -1 -18 4 -27 9 -16 10 -14 11 10 0 28 -5 34 -15 17z"/>
<path d="M738 8073 c6 -2 18 -2 25 0 6 3 1 5 -13 5 -14 0 -19 -2 -12 -5z"/>
<path d="M1115 7920 c-3 -5 1 -10 10 -10 9 0 13 5 10 10 -3 6 -8 10 -10 10 -2
0 -7 -4 -10 -10z"/>
<path d="M6957 7702 c-9 -2 -17 -11 -17 -21 0 -41 174 -272 537 -714 90 -109
189 -234 220 -278 31 -43 62 -79 68 -79 6 0 20 19 32 43 24 48 191 275 339
457 86 107 356 465 407 540 59 86 -48 32 -403 -204 -91 -60 -194 -122 -229
-138 -35 -16 -82 -41 -104 -55 l-40 -25 6 -239 c3 -131 3 -239 -1 -239 -4 0
-20 20 -37 44 -35 52 -240 309 -410 515 -129 156 -215 266 -215 275 0 3 39
-18 88 -46 48 -28 189 -102 314 -165 213 -107 266 -127 274 -98 5 17 -87 83
-186 134 -52 27 -120 63 -150 81 -30 18 -132 72 -225 120 -161 82 -217 102
-268 92z"/>
<path d="M6005 7684 c-74 -38 -97 -91 -70 -160 40 -105 148 -114 214 -18 l24
34 160 0 160 0 38 -35 c21 -19 50 -37 65 -41 62 -16 131 57 118 126 -10 48
-58 90 -103 90 -42 0 -86 -28 -96 -60 -6 -20 -13 -20 -173 -14 l-167 7 -23 28
c-26 32 -71 59 -99 59 -10 0 -31 -7 -48 -16z"/>
<path d="M6831 7364 c-53 -68 6 -153 79 -114 29 16 42 67 25 100 -25 48 -72
54 -104 14z"/>
<path d="M7097 7043 c-30 -34 -31 -70 -3 -97 31 -32 50 -33 81 -1 31 30 32 65
2 93 -28 27 -58 28 -80 5z"/>
<path d="M7305 6828 c-27 -15 -35 -28 -35 -59 0 -26 36 -69 58 -69 7 0 21 9
32 20 28 28 27 84 -2 104 -26 19 -27 19 -53 4z"/>
<path d="M2060 6800 c19 -4 48 -12 64 -19 39 -16 45 -6 7 13 -16 9 -47 15 -68
15 l-38 -1 35 -8z"/>
<path d="M1694 6791 c5 -8 56 -3 56 5 0 2 -14 4 -31 4 -16 0 -28 -4 -25 -9z"/>
<path d="M1520 6770 l-25 -8 27 -1 c15 -1 30 4 33 9 7 11 0 11 -35 0z"/>
<path d="M9167 6743 c-12 -11 -8 -68 5 -81 7 -7 21 -12 33 -12 28 0 45 19 45
50 0 14 -5 31 -12 38 -13 13 -60 16 -71 5z"/>
<path d="M3364 6672 c-51 -33 -28 -132 31 -132 27 0 65 35 65 61 0 40 -29 79
-58 79 -15 0 -32 -4 -38 -8z"/>
<path d="M8950 6555 c-102 -33 -164 -121 -164 -235 -1 -139 101 -243 239 -244
96 0 183 59 223 153 47 111 -5 258 -112 313 -51 26 -129 32 -186 13z m127 -94
c42 -20 63 -45 63 -78 0 -16 -8 -18 -80 -15 -89 5 -89 4 -106 -83 l-7 -37 97
3 c113 5 122 -5 52 -59 -59 -45 -170 -17 -193 49 -15 44 -16 127 -2 168 14 38
62 71 104 71 17 0 49 -9 72 -19z"/>
<path d="M482 6200 c-47 -19 -48 -85 -2 -110 28 -15 48 -12 70 10 27 27 26 75
-2 94 -25 18 -33 19 -66 6z"/>
<path d="M8092 6124 c-345 -58 -637 -279 -787 -597 -116 -243 -133 -523 -49
-777 94 -281 278 -478 572 -611 59 -26 134 -55 166 -63 32 -9 61 -17 63 -19 1
-2 -1 -111 -6 -243 -8 -213 -11 -247 -34 -316 -67 -208 -233 -386 -444 -476
-83 -35 -166 -41 -583 -41 -302 0 -415 -4 -479 -15 -97 -17 -117 -34 -68 -56
27 -13 107 -15 517 -15 433 0 492 2 550 18 217 59 456 246 540 422 75 156 98
290 100 556 0 99 9 110 55 73 38 -30 43 -30 38 1 -6 31 -24 46 -66 55 -24 5
-13 7 42 8 50 1 78 -3 87 -13 19 -18 18 -80 -2 -99 -14 -14 -14 -19 0 -47 12
-24 15 -64 14 -180 0 -85 -4 -149 -10 -149 -5 0 -7 -4 -3 -9 10 -18 -33 -158
-72 -231 -21 -39 -47 -89 -58 -110 -11 -22 -29 -46 -41 -54 -11 -8 -33 -34
-50 -58 -28 -42 -69 -92 -89 -110 -89 -79 -123 -105 -204 -151 -176 -99 -241
-114 -526 -123 l-220 -7 -120 46 c-183 69 -250 81 -424 74 -193 -7 -317 -38
-456 -112 -107 -57 -175 -75 -291 -75 -144 0 -348 -106 -456 -236 -65 -79 -82
-139 -82 -294 -1 -74 3 -153 7 -174 l8 -39 -86 5 c-48 3 -91 10 -97 16 -45 45
-19 384 38 495 66 127 151 212 277 275 180 90 294 109 556 92 204 -13 216 -5
55 36 -130 33 -327 43 -430 21 -154 -33 -327 -127 -420 -229 -28 -31 -67 -89
-87 -129 -75 -153 -119 -429 -84 -529 9 -24 14 -46 12 -48 -2 -3 -101 -1 -219
3 l-215 7 -25 64 c-50 123 -147 251 -261 343 -134 107 -222 146 -406 177 -119
20 -301 15 -409 -11 -80 -20 -209 -81 -278 -133 l-52 -39 -197 -6 c-108 -4
-242 -7 -297 -7 -288 0 -530 -105 -756 -328 -52 -51 -102 -98 -111 -102 -15
-8 -16 3 -15 103 1 121 -11 160 -56 191 -61 43 -85 15 -212 -249 -47 -99 -128
-263 -180 -365 -184 -363 -290 -630 -248 -630 28 0 176 50 347 118 190 75 430
153 577 187 123 28 120 25 113 97 -3 35 -11 93 -17 130 l-11 67 44 58 c24 32
84 99 134 148 92 93 164 137 265 165 45 12 313 20 324 9 3 -3 -4 -39 -15 -79
-19 -65 -21 -92 -16 -220 4 -121 9 -159 32 -230 80 -251 239 -433 482 -554
188 -93 403 -119 593 -71 93 24 275 114 343 169 130 107 258 297 302 449 l17
59 484 -4 484 -3 39 -82 c138 -288 381 -487 719 -590 79 -24 103 -27 257 -27
212 -1 299 20 490 116 252 126 477 398 541 651 24 97 19 95 128 53 94 -37 96
-38 107 -79 11 -40 8 -120 -7 -214 -8 -53 -1 -54 103 -13 113 45 147 42 290
-30 130 -64 249 -113 301 -125 43 -9 50 11 22 64 -11 23 -25 78 -31 124 -5 45
-13 91 -16 102 -4 11 -6 109 -4 217 1 129 -2 204 -9 217 -9 18 -20 21 -68 21
-63 0 -290 26 -319 37 -27 10 -129 79 -203 138 -97 77 -176 125 -265 160 l-80
31 -42 78 c-69 128 -202 290 -267 323 -15 8 -24 18 -20 23 5 4 90 13 189 19
197 12 257 25 395 84 109 48 196 114 341 257 93 93 128 135 178 220 109 185
141 337 141 674 l0 206 28 6 c110 24 276 93 366 151 86 55 213 176 271 258
192 270 245 621 144 960 -75 250 -282 494 -509 601 -112 53 -203 81 -321 98
-126 19 -195 19 -307 0z m411 -113 c159 -43 262 -106 401 -245 78 -78 156
-192 156 -228 0 -14 -6 -16 -27 -12 -16 3 -36 -1 -45 -8 -15 -11 -16 -19 -7
-51 10 -38 12 -39 45 -33 31 6 47 -5 25 -18 -4 -3 -9 -38 -10 -78 -1 -59 3
-82 23 -123 24 -48 24 -51 7 -70 -15 -16 -20 -43 -24 -125 -4 -83 -12 -124
-37 -195 -44 -126 -46 -146 -20 -170 22 -20 22 -20 45 7 13 15 25 33 28 40 2
7 8 9 13 4 5 -5 4 -11 -4 -13 -6 -3 -9 -9 -6 -15 3 -5 -8 -38 -25 -73 -22 -45
-36 -62 -46 -58 -8 3 -13 8 -11 12 3 4 -4 7 -15 7 -10 0 -19 -7 -19 -16 -1 -8
-9 0 -18 18 l-18 33 -40 -43 c-21 -24 -70 -71 -109 -106 l-69 -63 17 -28 c9
-16 13 -31 9 -35 -4 -4 -2 -7 3 -6 20 4 35 0 35 -10 0 -13 -99 -62 -113 -56
-7 2 -4 5 6 5 9 1 17 3 17 5 0 2 3 11 6 19 4 11 -2 16 -18 19 -19 2 -22 8 -20
31 l3 27 -38 -21 c-21 -11 -42 -25 -47 -30 -12 -11 31 -59 53 -59 25 0 -17
-34 -64 -52 -88 -35 -154 -49 -255 -55 -209 -11 -338 27 -580 173 -185 112
-346 349 -394 578 -18 89 -21 306 -5 376 20 88 93 257 146 339 78 120 239 274
342 326 71 35 189 76 266 91 102 20 337 12 438 -15z m611 -992 c-23 -26 -44
-24 -44 4 0 21 4 23 30 19 30 -4 30 -5 14 -23z m16 -219 c0 -5 -5 -10 -11 -10
-5 0 -7 5 -4 10 3 6 8 10 11 10 2 0 4 -4 4 -10z m-19 -47 c-12 -20 -14 -14 -5
12 4 9 9 14 11 11 3 -2 0 -13 -6 -23z m-320 -340 c13 -16 12 -17 -3 -4 -10 7
-18 15 -18 17 0 8 8 3 21 -13z m-2096 -1708 c129 -21 272 -81 375 -158 71 -54
196 -179 216 -219 15 -30 15 -31 -4 -26 -12 3 -31 -4 -48 -18 -28 -22 -28 -24
-14 -51 28 -50 90 -34 90 23 0 15 4 23 10 19 17 -10 91 -165 80 -165 -6 0 -8
-6 -4 -12 6 -10 4 -10 -7 0 -18 17 -68 15 -75 -3 -3 -8 -1 -30 6 -50 9 -28 17
-35 38 -36 15 0 21 -3 15 -6 -21 -8 -14 -25 7 -18 14 5 20 2 20 -9 0 -9 8 -16
19 -16 12 0 22 -9 25 -22 3 -13 3 2 1 32 -2 30 -6 64 -10 75 -5 15 -4 17 3 5
6 -8 19 -59 31 -112 29 -133 29 -296 0 -398 -26 -96 -42 -122 -33 -55 4 28 11
55 16 62 14 17 0 53 -20 53 -15 0 -15 2 -2 10 13 8 12 10 -3 10 -10 0 -27 -5
-38 -10 -15 -9 -19 -7 -20 7 -1 10 -5 -5 -10 -34 -5 -29 -23 -82 -40 -118 -30
-63 -30 -67 -13 -86 19 -21 43 -25 62 -9 6 6 10 7 7 4 -2 -4 0 -15 6 -25 8
-15 6 -19 -8 -19 -12 0 -14 -3 -6 -8 8 -5 -2 -30 -34 -82 -55 -91 -52 -88 -64
-70 -7 12 -11 13 -18 2 -4 -8 -12 -13 -17 -12 -5 0 -10 -8 -12 -20 -2 -11 -8
-20 -13 -20 -6 0 -8 -4 -5 -9 3 -4 -6 -6 -19 -3 -22 4 -31 19 -26 45 1 5 -3 6
-9 2 -5 -3 -10 -1 -10 5 0 6 -30 -15 -67 -46 -38 -31 -77 -64 -88 -73 -11 -9
-59 -34 -107 -56 -68 -31 -83 -42 -70 -49 23 -12 42 -37 36 -47 -3 -5 -16 -9
-29 -9 -13 0 -25 -6 -28 -12 -3 -7 -8 5 -12 27 l-7 41 -77 -20 c-75 -19 -76
-20 -76 -52 0 -17 9 -41 19 -53 l19 -21 -94 0 c-251 0 -457 68 -633 210 -249
201 -386 461 -386 732 0 130 19 231 67 353 41 103 87 175 185 292 229 272 545
387 903 328z m-930 -222 c-42 -37 -93 -90 -114 -118 -73 -95 -153 -281 -182
-422 l-13 -63 -72 0 -71 0 -6 68 c-12 119 -8 256 9 311 24 81 128 186 236 236
94 44 126 52 221 54 l68 1 -76 -67z m-1960 -78 c199 -32 319 -97 478 -257 44
-44 77 -89 93 -124 28 -63 29 -71 9 -54 -12 10 -15 7 -21 -17 -4 -15 -12 -32
-18 -36 -8 -6 -7 -10 2 -14 20 -8 14 -41 -9 -48 -11 -4 -22 -5 -24 -3 -1 1
-31 45 -65 96 -98 147 -228 241 -396 286 -67 18 -87 19 -249 14 -108 -3 -111
-4 -205 -50 -156 -78 -264 -181 -327 -311 -41 -85 -45 -105 -48 -257 -5 -197
14 -277 90 -385 63 -89 149 -166 245 -217 117 -64 171 -77 320 -79 117 -2 130
0 206 28 195 73 325 200 409 398 45 106 42 103 52 79 6 -15 18 -19 53 -19 l45
0 -1 -45 c0 -51 -85 -234 -130 -284 l-27 -29 -11 34 c-12 36 -38 48 -61 29
-32 -27 -12 -60 36 -60 10 0 19 -4 19 -10 0 -15 -70 -89 -114 -122 -56 -40
-75 -36 -37 7 31 36 36 51 25 79 -9 24 -26 20 -57 -14 -25 -26 -129 -83 -190
-104 -14 -4 -16 -10 -7 -25 5 -11 10 -29 10 -41 0 -13 4 -19 12 -14 6 4 8 3 5
-4 -14 -21 -105 -44 -197 -49 -236 -12 -461 79 -644 262 -119 118 -187 262
-222 467 l-18 105 31 152 c27 130 38 163 74 227 66 115 125 181 229 256 117
83 203 121 340 146 131 24 182 26 295 7z m-865 -221 l36 -6 -33 -35 c-18 -19
-48 -60 -66 -91 l-33 -57 -125 -7 c-202 -12 -359 -49 -442 -104 -21 -13 -43
-22 -50 -18 -7 4 -9 3 -4 -1 12 -14 -64 -86 -78 -75 -7 5 -44 11 -83 12 -40 2
-68 4 -62 6 5 2 10 8 10 14 0 6 -6 6 -15 -2 -8 -7 -15 -19 -15 -26 0 -8 -7
-14 -15 -14 -9 0 -12 -6 -8 -17 4 -11 3 -14 -5 -9 -8 5 -12 0 -12 -14 0 -12
-4 -18 -10 -15 -5 3 -10 0 -11 -7 0 -7 -4 -5 -8 6 -6 15 -24 0 -111 -94 -100
-107 -105 -111 -113 -87 -21 65 60 194 219 347 256 245 395 295 834 298 91 1
181 -1 200 -4z m765 -49 c0 -34 -3 -40 -23 -43 -46 -7 -69 40 -36 73 9 9 26
15 38 13 17 -2 21 -10 21 -43z m-93 19 c3 -3 4 -14 1 -24 -3 -13 -29 -28 -73
-45 -173 -66 -331 -245 -371 -420 -6 -27 -16 -63 -22 -78 l-10 -28 -23 22
c-24 22 -31 49 -17 63 4 4 13 39 20 78 22 133 106 259 227 343 82 56 246 111
268 89z m273 -23 c97 -43 241 -168 282 -244 29 -55 51 -116 57 -159 7 -47 7
-48 -19 -48 -21 0 -29 8 -42 38 -8 20 -16 47 -17 59 0 13 -5 23 -11 23 -5 0
-28 28 -50 61 -50 76 -118 133 -246 204 -76 43 -99 61 -99 77 0 19 4 20 53 14
28 -4 70 -15 92 -25z m3746 -63 c48 -24 92 -60 180 -149 64 -64 133 -128 155
-142 52 -35 142 -57 231 -57 73 0 86 -7 58 -30 -18 -15 -50 -101 -60 -160 -10
-63 -61 -115 -134 -136 -30 -9 -77 -27 -103 -40 -26 -13 -52 -24 -58 -24 -6 0
-10 34 -10 88 0 88 -21 186 -53 248 -26 51 -83 112 -171 186 -46 38 -87 76
-90 84 -7 19 -36 142 -36 155 0 16 25 10 91 -23z m-4000 -57 c-6 -11 -52 -53
-103 -94 -61 -48 -121 -109 -173 -176 -77 -97 -95 -110 -123 -93 -29 19 148
251 236 310 60 41 125 71 155 71 14 1 16 -3 8 -18z m185 -17 c30 -14 79 -49
107 -77 57 -57 178 -244 170 -264 -8 -22 -38 2 -112 90 -38 45 -105 116 -148
157 -48 46 -79 84 -80 98 -2 27 -3 27 63 -4z m-2197 -219 c-5 -94 -11 -184
-14 -201 -3 -17 0 -46 7 -64 11 -32 10 -35 -17 -55 -15 -11 -83 -65 -149 -121
-105 -88 -163 -148 -253 -261 -11 -16 -24 -25 -27 -22 -13 13 97 259 218 489
51 96 124 235 161 309 53 102 70 129 76 114 4 -10 3 -95 -2 -188z m2067 164
c4 -6 7 -29 7 -50 0 -37 0 -38 49 -44 57 -8 88 -33 88 -70 0 -22 -3 -23 -24
-15 -36 13 -160 23 -200 16 -35 -7 -36 -8 -36 -51 l0 -45 130 0 130 0 0 -40
c0 -53 -19 -60 -156 -60 l-104 0 0 -27 c0 -73 1 -73 125 -73 127 0 145 -4 145
-31 0 -26 -30 -39 -89 -39 l-51 0 0 -44 c0 -62 -11 -136 -21 -136 -11 0 -22
63 -23 132 l-1 57 -70 3 -70 3 -9 80 c-17 153 -11 280 15 312 19 22 65 43 94
43 20 0 25 5 25 26 0 47 29 80 46 53z m1747 -149 c3 -3 7 -32 8 -65 l3 -60
-365 -1 c-200 0 -414 -1 -476 -2 l-111 -2 -7 -76 -8 -76 -56 6 c-71 8 -101 36
-108 99 -4 36 -1 53 17 82 15 24 20 44 16 60 -4 14 -3 26 1 26 94 15 1072 23
1086 9z m2275 -85 c67 -72 110 -180 65 -159 -10 4 -55 17 -100 28 l-83 21 0
75 c0 41 3 85 6 97 l6 21 33 -19 c18 -11 51 -40 73 -64z m679 -32 c8 -39 9
-480 1 -488 -10 -11 -117 17 -173 44 -70 35 -106 66 -99 85 3 8 39 28 79 46
41 18 82 41 91 51 12 13 19 47 25 116 8 101 17 162 25 175 3 5 14 8 24 8 14 0
21 -10 27 -37z m-4152 -43 c0 -32 -2 -35 -30 -35 -24 0 -31 5 -33 23 -6 38 5
54 35 50 25 -3 28 -7 28 -38z m-960 -38 c6 -4 40 -45 76 -92 93 -122 94 -123
199 -215 108 -94 136 -102 188 -52 15 15 33 27 39 27 6 0 13 5 15 11 3 8 10 5
21 -6 17 -17 19 -17 31 0 7 10 17 16 22 13 5 -3 17 3 26 13 12 12 13 19 5 23
-7 2 -5 5 4 5 9 1 19 9 23 19 3 9 9 24 13 32 5 13 4 13 -11 1 -28 -24 -27 -6
2 26 33 37 72 52 72 28 0 -9 -4 -14 -9 -11 -4 3 -16 0 -25 -7 -14 -10 -15 -18
-7 -39 10 -28 -2 -43 -99 -120 -73 -57 -102 -68 -184 -69 -64 -1 -84 3 -128
26 -118 61 -178 121 -255 258 -71 126 -68 118 -52 128 17 11 21 11 34 1z
m1725 -23 c316 -1 423 -9 390 -29 -7 -4 -11 -17 -8 -28 5 -19 0 -20 -86 -24
-132 -6 -632 -1 -711 7 -71 8 -82 17 -71 61 7 26 7 26 79 20 40 -4 223 -7 407
-7z m-3230 -3 c0 -2 -8 -10 -17 -17 -16 -13 -17 -12 -4 4 13 16 21 21 21 13z
m2307 -18 c-3 -8 -6 -5 -6 6 -1 11 2 17 5 13 3 -3 4 -12 1 -19z m143 -33 c0
-41 -21 -122 -36 -141 -14 -18 -15 -18 -8 5 4 14 2 21 -4 17 -24 -14 -20 115
5 157 9 15 43 -14 43 -38z m-1031 -22 c30 -78 121 -212 179 -265 82 -73 261
-156 296 -136 21 12 56 -7 56 -32 0 -44 -59 -67 -81 -31 -8 11 -19 16 -31 13
-50 -13 -245 71 -310 133 -105 101 -157 198 -166 308 -4 62 -3 67 15 67 15 0
26 -14 42 -57z m-1245 -5 c-23 -46 -27 -48 -20 -8 5 26 4 31 -3 20 -9 -13 -11
-13 -11 3 0 12 8 17 25 17 25 0 25 0 9 -32z m2097 -3 c8 5 9 1 4 -16 -15 -47
-36 -79 -52 -79 -16 0 -16 1 0 13 20 15 35 77 18 77 -6 0 -11 5 -11 11 0 8 4
8 15 -1 8 -6 19 -9 26 -5z m-59 -37 c-7 -7 -12 -8 -12 -2 0 14 12 26 19 19 2
-3 -1 -11 -7 -17z m13 -78 c-3 -5 -11 -10 -16 -10 -6 0 -7 5 -4 10 3 6 11 10
16 10 6 0 7 -4 4 -10z m165 -64 c0 -2 -8 -10 -17 -17 -16 -13 -17 -12 -4 4 13
16 21 21 21 13z m-200 -126 c0 -5 -4 -10 -10 -10 -5 0 -10 5 -10 10 0 6 5 10
10 10 6 0 10 -4 10 -10z m70 -4 c0 -3 -4 -8 -10 -11 -5 -3 -10 -1 -10 4 0 6 5
11 10 11 6 0 10 -2 10 -4z m-45 -35 c-3 -6 -11 -11 -17 -11 -6 0 -6 6 2 15 14
17 26 13 15 -4z m-47 -17 c-2 -9 -10 -20 -18 -24 -8 -4 -28 -14 -45 -22 -60
-31 -145 -33 -145 -4 0 15 78 46 117 46 18 0 35 5 38 10 3 6 17 10 31 10 18 0
25 -5 22 -16z m3156 -137 c-4 -12 -65 -57 -77 -57 -4 0 -7 7 -7 15 0 8 6 12
14 9 9 -3 19 4 27 18 6 13 17 26 23 30 14 9 26 0 20 -15z m-3024 -41 c0 -8 2
-21 5 -28 6 -15 -60 -53 -75 -43 -4 3 -10 -2 -14 -10 -8 -21 -21 -19 -23 5 -1
11 4 20 10 20 7 0 6 4 -3 10 -16 10 -17 9 30 38 40 25 70 28 70 8z m-146 -43
c-5 -5 -12 -12 -16 -18 -4 -6 -8 -2 -8 8 0 9 7 17 17 17 9 0 12 -3 7 -7z"/>
<path d="M8212 5953 c3 -36 5 -38 41 -41 l38 -3 -3 38 c-3 36 -5 38 -41 41
l-38 3 3 -38z"/>
<path d="M8032 5945 c-62 -27 -51 -68 17 -63 40 3 61 29 45 55 -14 23 -24 24
-62 8z"/>
<path d="M8398 5954 c-26 -25 13 -74 59 -74 29 0 47 31 30 54 -13 18 -77 32
-89 20z"/>
<path d="M8560 5885 c0 -44 80 -63 88 -21 5 25 -23 46 -60 46 -23 0 -28 -4
-28 -25z"/>
<path d="M7853 5880 c-26 -10 -31 -38 -9 -46 19 -7 53 11 66 36 9 17 8 20 -12
19 -13 0 -33 -4 -45 -9z"/>
<path d="M8156 5849 c-99 -15 -246 -67 -317 -114 -36 -24 -104 -84 -151 -133
-128 -133 -190 -273 -204 -457 -20 -260 88 -487 323 -680 55 -45 192 -102 288
-120 118 -23 275 -17 362 14 202 69 376 215 457 383 67 138 81 199 81 358 0
155 -13 216 -73 344 -43 92 -125 186 -226 262 -105 80 -194 117 -336 140 -94
15 -117 16 -204 3z m-316 -244 c-7 -9 -15 -13 -19 -10 -3 3 1 10 9 15 21 14
24 12 10 -5z m450 -30 l0 -44 150 6 150 6 0 -65 0 -66 -115 -7 c-64 -4 -183
-6 -265 -3 -174 5 -158 18 -161 -132 l-2 -95 232 -3 231 -2 0 -65 0 -65 -230
0 -230 0 0 -125 0 -125 270 0 270 0 0 -65 0 -65 -158 0 -159 0 -1 -46 c0 -25
-5 -51 -12 -58 -17 -17 -40 20 -40 66 l0 38 -150 0 -150 0 -6 25 c-3 13 -4
103 -2 199 l3 176 -27 6 c-16 3 -41 3 -58 -1 l-30 -7 0 66 0 66 49 0 c29 0 53
5 58 13 4 6 10 84 13 172 l5 160 143 -1 142 -2 0 37 c0 46 5 51 47 51 32 0 33
-1 33 -45z"/>
<path d="M8759 5826 c-9 -6 -21 -21 -27 -32 -9 -18 -8 -25 7 -38 9 -9 27 -16
39 -16 25 0 55 40 47 62 -9 24 -48 38 -66 24z"/>
<path d="M7682 5777 c-28 -29 -28 -42 0 -61 24 -17 51 -8 68 25 28 51 -27 80
-68 36z"/>
<path d="M8873 5703 c-32 -13 -6 -43 38 -43 22 0 23 4 9 31 -11 19 -23 22 -47
12z"/>
<path d="M7553 5635 c-30 -21 -34 -51 -11 -72 19 -17 21 -17 44 10 29 34 30
53 6 66 -14 7 -25 6 -39 -4z"/>
<path d="M8925 5630 c-3 -5 -1 -17 4 -27 5 -10 13 -31 16 -47 6 -27 7 -27 20
-10 17 22 20 54 5 54 -5 0 -10 9 -10 20 0 20 -24 28 -35 10z"/>
<path d="M7446 5478 c-21 -29 -20 -41 2 -61 26 -24 31 -22 48 19 12 28 12 39
3 50 -17 20 -36 17 -53 -8z"/>
<path d="M7393 5322 c-22 -14 -27 -67 -8 -85 20 -20 29 -21 43 -4 21 25 24 63
7 81 -18 18 -25 19 -42 8z"/>
<path d="M7367 5134 c-4 -4 -7 -25 -7 -46 0 -38 1 -39 33 -36 30 3 32 5 32 43
0 35 -3 40 -25 43 -14 2 -29 0 -33 -4z"/>
<path d="M7380 4920 c0 -32 22 -70 41 -70 25 0 32 16 25 56 -6 30 -11 34 -36
34 -23 0 -30 -5 -30 -20z"/>
<path d="M7452 4769 c-24 -9 -24 -14 -1 -76 10 -27 17 -28 47 -7 26 18 28 41
6 72 -17 24 -19 25 -52 11z"/>
<path d="M8947 4603 c-4 -3 -7 -11 -7 -17 0 -6 5 -5 12 2 6 6 9 14 7 17 -3 3
-9 2 -12 -2z"/>
<path d="M9005 4579 c-4 -6 -5 -12 -2 -15 2 -3 7 2 10 11 7 17 1 20 -8 4z"/>
<path d="M7557 4573 c-12 -12 -7 -60 7 -72 16 -14 43 -4 66 24 11 13 10 19 -5
35 -18 20 -55 27 -68 13z"/>
<path d="M7700 4430 c-27 -27 -25 -44 6 -65 31 -20 50 -14 66 20 9 21 8 28 -7
45 -23 25 -40 25 -65 0z"/>
<path d="M7872 4308 c2 -23 11 -37 31 -48 26 -14 29 -14 43 4 8 11 14 27 14
36 0 18 -39 40 -71 40 -17 0 -20 -6 -17 -32z"/>
<path d="M8022 4243 c2 -30 9 -41 31 -51 37 -18 47 -9 47 44 l0 44 -41 0 -40
0 3 -37z"/>
<path d="M8425 4271 c-16 -3 -29 -10 -27 -14 1 -4 2 -23 2 -42 0 -30 3 -35 23
-35 30 0 52 25 60 68 7 35 3 36 -58 23z"/>
<path d="M8208 4233 c-7 -51 1 -63 37 -63 40 0 60 27 51 66 -5 20 -13 24 -45
24 -35 0 -39 -3 -43 -27z"/>
<path d="M6495 2649 c-4 -6 -4 -26 0 -45 6 -33 8 -35 43 -32 36 3 37 4 40 46
l3 42 -40 0 c-22 0 -43 -5 -46 -11z"/>
<path d="M6316 2611 c-14 -16 -15 -20 -2 -30 8 -7 27 -11 43 -9 22 2 29 9 31
31 3 24 0 27 -26 27 -16 0 -36 -8 -46 -19z"/>
<path d="M6700 2613 c0 -50 68 -72 94 -31 15 24 -2 38 -53 45 -36 5 -41 3 -41
-14z"/>
<path d="M6155 2557 c-70 -27 -98 -57 -55 -57 29 0 100 40 100 56 0 16 -5 16
-45 1z"/>
<path d="M6381 2515 c-152 -34 -227 -69 -332 -153 -131 -106 -198 -190 -253
-318 -53 -121 -69 -208 -63 -324 13 -223 99 -391 285 -555 126 -112 246 -165
415 -186 111 -13 188 -7 303 26 98 29 122 40 217 103 154 101 238 205 310 382
l42 105 -1 165 c0 153 -2 171 -27 248 -36 106 -128 242 -221 328 -80 74 -185
129 -311 164 -103 29 -274 36 -364 15z m535 -341 c3 -22 4 -52 2 -65 l-3 -24
-292 -3 -293 -2 0 -125 0 -125 133 -2 c72 -1 191 -2 262 -2 l130 -1 3 -67 3
-68 -266 0 -265 0 0 -136 0 -137 293 4 292 4 3 -67 c3 -60 1 -68 -15 -68 -10
0 -121 -2 -248 -4 -126 -2 -285 -1 -352 2 l-123 5 0 214 0 215 -60 -4 -60 -3
0 64 0 64 63 -7 62 -6 3 187 c2 103 6 192 9 197 3 5 159 7 359 5 l353 -4 7
-41z"/>
<path d="M6976 2503 c-4 -10 2 -25 16 -40 l23 -24 22 28 c33 41 29 53 -16 53
-27 0 -41 -5 -45 -17z"/>
<path d="M5963 2450 c-12 -5 -27 -19 -34 -31 -10 -20 -9 -25 11 -41 27 -22 57
-10 66 28 9 34 -13 55 -43 44z"/>
<path d="M7103 2424 c-28 -58 15 -99 46 -43 17 30 8 79 -14 79 -9 0 -23 -16
-32 -36z"/>
<path d="M5799 2278 c-25 -20 -29 -45 -10 -62 16 -15 19 -14 40 8 37 40 11 87
-30 54z"/>
<path d="M5693 2108 c-29 -36 -25 -88 8 -88 23 0 41 33 37 68 -3 29 -29 41
-45 20z"/>
<path d="M5606 1845 c-3 -9 -6 -28 -6 -41 0 -23 3 -25 38 -22 35 3 37 5 37 38
0 32 -3 35 -31 38 -22 2 -33 -2 -38 -13z"/>
<path d="M7370 1816 c0 -46 10 -56 56 -56 27 0 40 33 30 75 -5 21 -12 25 -46
25 l-40 0 0 -44z"/>
<path d="M7384 1732 c-7 -4 -14 -25 -15 -47 -4 -39 -3 -40 29 -43 52 -5 76 30
56 82 -6 17 -50 22 -70 8z"/>
<path d="M5607 1724 c-4 -4 -7 -23 -7 -41 0 -33 2 -34 33 -31 29 3 32 6 32 38
0 30 -4 35 -25 38 -14 2 -29 0 -33 -4z"/>
<path d="M5685 1446 c-11 -71 7 -94 49 -63 16 12 17 16 3 48 -7 19 -21 40 -30
47 -14 12 -16 8 -22 -32z"/>
<path d="M7225 1278 c-10 -18 -23 -36 -29 -40 -6 -4 -3 -10 9 -14 11 -4 23
-12 27 -18 5 -8 8 -7 8 1 0 9 7 10 23 4 21 -8 23 -6 25 26 2 22 -4 43 -14 54
-23 25 -27 24 -49 -13z"/>
<path d="M5792 1260 c-38 -36 -19 -74 35 -68 34 4 43 40 17 69 -21 24 -25 24
-52 -1z"/>
<path d="M5930 1101 c-18 -34 -12 -61 16 -73 24 -11 29 -10 50 17 29 36 30 51
5 65 -30 16 -59 12 -71 -9z"/>
<path d="M6107 988 c3 -13 17 -38 30 -55 32 -43 78 -46 94 -6 12 33 1 45 -65
67 -63 21 -65 20 -59 -6z"/>
<path d="M6315 922 c-14 -14 -3 -62 17 -76 32 -23 68 -21 68 3 0 42 -18 68
-49 73 -17 3 -33 2 -36 0z"/>
<path d="M6492 868 c3 -52 4 -53 36 -56 41 -4 62 12 62 48 0 51 -9 60 -57 60
l-44 0 3 -52z"/>
<path d="M3640 2359 c-17 -30 -8 -62 20 -76 43 -22 87 26 69 75 -11 30 -73 32
-89 1z"/>
<path d="M3210 2212 c-21 -17 -21 -18 -3 -34 30 -27 57 -27 61 0 3 22 -13 52
-28 52 -4 0 -18 -8 -30 -18z"/>
<path d="M4106 2215 c-23 -23 -20 -52 6 -61 15 -4 26 -1 35 12 30 41 -6 84
-41 49z"/>
<path d="M3091 2124 c-26 -18 -25 -51 2 -68 23 -15 51 3 55 37 4 35 -26 52
-57 31z"/>
<path d="M4202 2118 c-19 -19 -14 -37 12 -44 31 -7 68 12 64 34 -4 21 -58 28
-76 10z"/>
<path d="M2897 1652 c-10 -10 -17 -28 -17 -39 0 -23 29 -53 52 -53 37 0 64 70
36 98 -18 18 -53 15 -71 -6z"/>
<path d="M4322 1326 c-15 -34 -15 -36 2 -36 20 0 24 10 17 39 l-6 24 -13 -27z"/>
<path d="M2995 1280 c3 -5 10 -10 16 -10 5 0 9 5 9 10 0 6 -7 10 -16 10 -8 0
-12 -4 -9 -10z"/>
<path d="M3083 1144 c-21 -33 -8 -58 35 -62 42 -4 61 28 37 64 -20 31 -50 31
-72 -2z"/>
<path d="M3214 1018 c-20 -39 -5 -58 46 -58 47 0 60 23 29 56 -34 36 -57 37
-75 2z"/>
<path d="M3660 893 c-33 -13 -40 -52 -14 -77 35 -36 87 -6 82 48 -2 25 -8 31
-28 33 -14 1 -32 -1 -40 -4z"/>
<path d="M4380 1660 c-35 -35 -17 -100 28 -100 39 0 57 73 26 104 -20 21 -30
20 -54 -4z"/>
<path d="M7300 5970 c-26 -26 -25 -60 1 -94 25 -32 49 -33 77 -3 28 29 28 57
1 91 -24 31 -52 33 -79 6z"/>
<path d="M9377 5854 c-14 -14 -7 -53 12 -63 26 -14 54 8 49 40 -2 17 -10 25
-28 27 -14 2 -29 0 -33 -4z"/>
<path d="M5997 5822 c-22 -25 -21 -75 1 -95 10 -10 32 -17 49 -17 55 0 81 59
47 108 -19 28 -74 30 -97 4z"/>
<path d="M5130 5655 c-17 -46 24 -100 56 -74 17 14 18 71 2 87 -20 20 -48 14
-58 -13z"/>
<path d="M7041 5614 c-26 -34 -27 -68 -1 -94 26 -26 64 -25 90 2 28 31 26 72
-6 97 -36 28 -58 26 -83 -5z"/>
<path d="M6661 5283 c-49 -42 -28 -125 32 -125 63 0 90 76 44 120 -28 27 -48
28 -76 5z"/>
<path d="M445 5194 c-34 -37 -34 -96 0 -129 57 -57 155 -16 155 65 0 80 -102
122 -155 64z"/>
<path d="M6935 5185 c-32 -31 -33 -74 -2 -103 39 -37 88 -28 113 20 13 25 13
35 3 59 -22 54 -74 65 -114 24z"/>
<path d="M493 4558 c-33 -43 -19 -88 27 -88 20 0 35 8 46 25 15 23 15 27 0 50
-18 27 -57 34 -73 13z"/>
<path d="M6007 4502 c-33 -36 -14 -122 27 -122 7 0 25 9 40 21 32 25 35 70 6
99 -25 25 -52 26 -73 2z"/>
<path d="M5171 4463 c-23 -28 -21 -54 7 -85 24 -29 57 -22 75 14 35 72 -35
132 -82 71z"/>
<path d="M9224 4381 c-28 -12 -72 -66 -80 -98 -15 -58 32 -134 94 -150 62 -15
145 42 157 111 16 85 -91 171 -171 137z m89 -92 c16 -26 0 -68 -30 -75 -14 -4
-33 -2 -42 3 -17 11 -26 55 -17 79 8 20 75 15 89 -7z"/>
<path d="M7464 4035 c-21 -32 -11 -72 21 -87 51 -23 89 57 47 95 -26 24 -49
21 -68 -8z"/>
<path d="M7696 4044 c-4 -10 -4 -48 0 -85 l6 -66 -35 -7 c-48 -9 -116 -60
-133 -101 -43 -105 6 -206 129 -265 42 -20 53 -31 58 -55 l5 -30 7 38 c6 29
16 41 45 56 45 23 87 66 101 104 17 45 13 114 -9 158 -18 34 -80 91 -111 101
-7 2 -6 25 2 66 15 72 7 95 -33 100 -17 2 -28 -3 -32 -14z m62 -251 c29 -18
42 -52 42 -109 0 -39 -4 -47 -32 -64 -67 -41 -138 -14 -158 60 -14 51 -5 84
31 115 32 27 72 26 117 -2z"/>
<path d="M7686 3713 c-8 -21 17 -48 38 -40 9 4 16 18 16 32 0 20 -5 25 -24 25
-13 0 -27 -8 -30 -17z"/>
<path d="M8741 4008 c-36 -37 -39 -60 -10 -96 20 -26 20 -36 18 -332 -2 -304
-2 -305 -26 -333 -29 -36 -29 -45 3 -78 25 -26 25 -29 14 -84 -16 -77 -8 -105
30 -105 39 0 44 12 43 94 -1 46 4 77 13 90 17 25 18 50 2 76 -10 15 -9 22 6
39 19 21 149 117 341 251 140 97 305 228 305 241 0 5 11 9 24 9 14 0 37 10 52
23 22 19 26 29 20 51 -6 24 -10 27 -34 21 -14 -3 -45 -23 -67 -43 -22 -20 -91
-73 -153 -117 -63 -44 -144 -103 -181 -131 -37 -28 -112 -82 -167 -119 -54
-37 -111 -79 -125 -92 -23 -21 -27 -22 -33 -8 -3 9 -6 130 -6 269 0 239 1 254
20 271 11 10 22 26 25 36 11 34 -37 99 -73 99 -5 0 -24 -14 -41 -32z"/>
<path d="M8958 3963 c12 -2 30 -2 40 0 9 3 -1 5 -23 4 -22 0 -30 -2 -17 -4z"/>
<path d="M9498 3963 c6 -2 18 -2 25 0 6 3 1 5 -13 5 -14 0 -19 -2 -12 -5z"/>
<path d="M8231 3925 c0 -19 26 -58 33 -47 3 5 -3 21 -14 33 -11 13 -19 20 -19
14z"/>
<path d="M430 3853 c-25 -10 -64 -43 -77 -66 -19 -34 -16 -108 7 -144 57 -94
187 -88 234 11 32 68 11 151 -46 186 -31 19 -86 25 -118 13z m78 -85 c17 -17
15 -58 -5 -80 -22 -25 -59 -23 -77 4 -20 29 -20 30 5 62 22 27 57 34 77 14z"/>
<path d="M7374 3481 c-72 -18 -124 -84 -124 -158 0 -43 28 -110 56 -135 34
-30 95 -50 131 -43 46 8 108 67 129 121 15 38 15 51 4 87 -30 100 -105 149
-196 128z m87 -100 c56 -56 29 -151 -43 -151 -48 0 -78 34 -78 87 0 90 62 123
121 64z"/>
<path d="M8540 3471 c0 -23 47 -74 60 -66 6 3 10 20 10 36 0 22 -6 32 -26 39
-36 14 -44 13 -44 -9z"/>
<path d="M487 3314 c-11 -11 -8 -62 4 -69 5 -4 21 -4 35 -1 21 6 25 12 22 39
-2 26 -8 33 -28 35 -14 2 -29 0 -33 -4z"/>
<path d="M8131 3283 c-10 -26 -10 -27 4 -9 8 11 15 23 15 28 0 15 -7 8 -19
-19z"/>
<path d="M746 3248 c-47 -66 17 -138 82 -92 44 31 17 114 -38 114 -18 0 -34
-8 -44 -22z"/>
<path d="M8503 3258 c-32 -15 -31 -67 1 -97 l23 -22 32 26 c33 29 39 51 19 77
-18 22 -49 28 -75 16z"/>
<path d="M8080 3200 c-6 -11 -8 -20 -6 -20 3 0 10 9 16 20 6 11 8 20 6 20 -3
0 -10 -9 -16 -20z"/>
<path d="M7965 3053 l-18 -28 27 24 c28 26 31 31 17 31 -5 0 -17 -12 -26 -27z"/>
<path d="M1113 3059 c-42 -16 -17 -109 30 -109 30 0 57 31 57 65 0 19 -3 36
-7 38 -20 11 -60 14 -80 6z"/>
<path d="M481 3041 c-48 -48 -4 -129 52 -99 28 14 37 27 37 54 0 49 -56 78
-89 45z"/>
<path d="M9045 3031 c-51 -23 -75 -65 -75 -128 0 -60 16 -91 59 -120 40 -27
66 -29 121 -7 106 43 113 202 10 254 -48 25 -64 25 -115 1z"/>
<path d="M755 3010 c-38 -42 18 -105 61 -70 21 18 18 67 -5 80 -28 14 -35 13
-56 -10z"/>
<path d="M8235 2951 c-89 -27 -123 -47 -190 -115 -194 -196 -195 -501 -2 -690
233 -227 633 -157 772 136 128 271 -18 599 -300 674 -70 19 -207 16 -280 -5z
m297 -80 c115 -44 212 -165 239 -297 24 -117 -11 -254 -88 -344 -44 -51 -86
-78 -178 -115 -60 -24 -79 -27 -145 -23 -145 8 -279 97 -343 227 -30 62 -32
71 -31 176 0 90 4 121 23 169 39 99 130 181 240 218 75 25 203 20 283 -11z"/>
<path d="M8273 2810 c-90 -30 -141 -73 -183 -154 -33 -65 -35 -75 -35 -165 0
-79 4 -104 23 -142 35 -72 87 -125 150 -156 48 -23 70 -28 142 -28 71 0 94 4
141 26 122 57 190 159 197 295 8 143 -44 242 -160 302 -86 45 -181 53 -275 22z
m203 -49 c176 -80 232 -332 103 -462 -29 -29 -126 -77 -135 -66 -1 1 1 17 3
35 5 28 9 33 26 28 35 -9 74 5 86 30 11 26 15 146 5 157 -3 3 -6 32 -7 65 -2
66 -20 95 -72 117 -19 8 -33 25 -40 46 -13 38 -49 53 -102 43 -20 -4 -33 -2
-33 4 0 26 111 28 166 3z m-171 -60 c-6 -29 -9 -31 -44 -25 -46 7 -61 -8 -64
-66 -2 -33 2 -45 18 -54 30 -17 35 -27 35 -81 0 -33 -7 -60 -20 -80 -35 -52
-22 -105 25 -105 12 0 36 -13 54 -29 20 -18 48 -31 70 -34 35 -4 35 -4 -7 -5
-24 -1 -57 5 -75 15 -18 9 -38 18 -45 19 -30 5 -60 36 -89 90 -60 116 -62 178
-8 284 27 54 58 84 105 104 42 18 54 9 45 -33z m88 -25 l-3 -46 38 6 c42 7 72
-12 72 -46 0 -10 3 -25 6 -33 3 -8 -4 -24 -16 -35 l-21 -20 25 -27 c49 -53 20
-131 -51 -137 -33 -3 -37 -7 -47 -42 -9 -31 -13 -36 -22 -25 -7 8 -13 23 -15
33 -7 34 -35 43 -71 23 -17 -10 -32 -16 -34 -14 -2 1 3 21 10 42 8 22 16 84
18 137 l3 97 -28 5 c-20 4 -28 11 -25 23 3 15 14 18 58 18 53 0 54 0 62 35 14
56 17 62 31 57 8 -3 11 -21 10 -51z"/>
<path d="M8332 2550 c10 -38 13 -40 48 -40 41 0 74 27 68 57 -3 15 -14 19 -65
21 l-61 3 10 -41z"/>
<path d="M8336 2454 c-3 -9 -6 -26 -6 -39 0 -20 6 -23 58 -27 60 -6 72 0 72
39 0 28 -27 43 -78 43 -27 0 -42 -5 -46 -16z"/>
<path d="M7767 2913 c-20 -14 -35 -28 -33 -30 5 -5 86 44 86 52 0 10 -16 3
-53 -22z"/>
<path d="M915 2863 c-93 -19 -158 -56 -226 -125 -100 -102 -141 -206 -140
-355 2 -403 471 -626 788 -375 91 73 153 186 174 322 28 184 -70 388 -232 483
-56 33 -185 67 -248 66 -25 0 -77 -7 -116 -16z m255 -82 c104 -39 177 -110
228 -218 24 -52 27 -69 27 -168 -1 -91 -5 -120 -24 -168 -32 -82 -122 -175
-203 -213 -56 -26 -74 -29 -163 -29 -92 0 -106 3 -167 32 -226 107 -312 360
-198 582 47 92 168 183 269 201 63 12 175 2 231 -19z"/>
<path d="M905 2714 c-85 -36 -136 -85 -179 -174 -28 -58 -31 -75 -31 -155 0
-83 3 -95 34 -153 65 -119 172 -182 310 -182 119 0 213 65 283 194 31 57 33
67 33 156 0 76 -4 104 -22 142 -30 66 -95 132 -156 159 -69 30 -213 37 -272
13z m230 -58 c133 -61 200 -234 146 -376 -30 -79 -74 -135 -127 -161 -38 -18
-57 -21 -112 -16 -94 8 -137 23 -181 63 -43 38 -88 130 -97 196 -8 56 14 136
56 201 25 39 43 54 102 82 88 42 141 45 213 11z"/>
<path d="M950 2616 c0 -14 -10 -32 -22 -41 -21 -14 -23 -14 -28 1 -5 13 -8 13
-21 -3 -15 -17 -39 -75 -39 -95 0 -5 13 -14 29 -19 32 -11 41 -32 41 -97 0
-28 -5 -45 -14 -48 -18 -7 -47 -79 -40 -97 6 -18 47 -37 78 -37 14 0 27 -9 34
-24 12 -26 67 -50 104 -44 19 2 24 10 26 46 3 35 7 42 25 42 16 0 18 -3 9 -12
-7 -7 -12 -25 -12 -40 0 -25 2 -27 23 -17 35 16 67 70 67 113 0 57 -14 76 -58
76 l-37 0 38 25 c64 44 85 113 49 167 -20 30 -65 68 -81 68 -6 0 -11 5 -11 10
0 6 -9 19 -20 30 -16 16 -33 20 -80 20 -57 0 -60 -1 -60 -24z m80 -42 c0 -19
7 -24 45 -30 33 -4 52 -14 70 -36 29 -34 31 -48 11 -86 -26 -50 -50 -64 -103
-61 -48 3 -48 3 -51 -30 -4 -44 8 -51 91 -51 64 0 67 -1 67 -25 0 -22 -4 -24
-57 -27 l-58 -3 -5 -49 c-4 -39 -7 -46 -17 -35 -6 8 -13 28 -15 44 -3 29 -5
30 -60 33 -61 3 -64 6 -49 46 8 19 15 23 32 19 18 -5 21 -3 16 11 -4 10 -7 60
-7 112 0 94 0 94 -25 94 -20 0 -25 5 -25 26 0 24 2 25 53 22 49 -3 52 -2 53
22 2 52 3 53 19 40 8 -7 15 -23 15 -36z"/>
<path d="M990 2466 c0 -48 9 -56 61 -56 47 0 49 1 49 28 0 39 -17 52 -67 52
-39 0 -43 -2 -43 -24z"/>
<path d="M7073 2783 c9 -2 25 -2 35 0 9 3 1 5 -18 5 -19 0 -27 -2 -17 -5z"/>
<path d="M6958 2773 c6 -2 18 -2 25 0 6 3 1 5 -13 5 -14 0 -19 -2 -12 -5z"/>
<path d="M4046 2739 c-41 -32 -49 -54 -31 -88 18 -37 52 -61 83 -61 28 0 92
59 92 85 0 26 -64 85 -93 85 -13 0 -36 -9 -51 -21z"/>
<path d="M4342 2744 c-16 -6 -37 -22 -45 -35 -15 -21 -15 -25 5 -61 43 -77 83
-86 134 -31 38 41 41 70 9 103 -32 34 -63 41 -103 24z"/>
<path d="M4609 2737 c-50 -43 -53 -53 -30 -90 11 -18 36 -42 54 -52 32 -17 35
-17 61 0 33 22 59 70 51 95 -9 27 -63 70 -88 70 -12 0 -34 -10 -48 -23z"/>
<path d="M4910 2743 c-60 -42 -63 -63 -11 -114 45 -46 68 -48 110 -13 41 34
41 72 0 113 -34 35 -63 39 -99 14z"/>
<path d="M3432 2734 c-46 -32 -45 -78 2 -116 28 -23 64 -22 103 1 48 30 51 56
12 97 -37 38 -79 45 -117 18z"/>
<path d="M3740 2733 c-61 -43 -62 -47 -21 -92 49 -53 97 -57 142 -12 37 38 37
63 -2 95 -36 30 -83 34 -119 9z"/>
<path d="M9308 2603 c-23 -6 -33 -45 -18 -72 13 -26 51 -27 73 -3 21 23 22 46
1 66 -16 16 -24 17 -56 9z"/>
<path d="M9066 2584 c-29 -28 -20 -62 20 -81 35 -17 36 -17 55 6 25 31 24 46
-7 70 -32 25 -47 26 -68 5z"/>
<path d="M7621 2474 c-28 -36 -26 -60 8 -95 37 -36 45 -36 83 1 24 25 29 36
23 58 -16 65 -77 84 -114 36z"/>
<path d="M1693 2418 c-64 -31 -45 -139 25 -138 72 1 101 92 44 138 -19 14 -39
15 -69 0z"/>
<path d="M4596 2299 c-53 -42 -20 -149 47 -149 30 0 74 40 83 74 8 32 -17 73
-52 86 -36 14 -48 13 -78 -11z"/>
<path d="M9295 2190 c-15 -16 -17 -26 -9 -48 12 -34 61 -44 81 -16 41 56 -26
115 -72 64z"/>
<path d="M8918 2179 c-21 -12 -24 -59 -6 -77 26 -26 88 -3 88 32 0 35 -52 63
-82 45z"/>
<path d="M9086 2164 c-16 -41 8 -74 55 -74 39 0 59 43 33 71 -21 24 -79 26
-88 3z"/>
<path d="M8731 1891 c-16 -29 -14 -46 8 -65 26 -24 62 -17 81 16 20 37 5 62
-43 66 -27 2 -38 -2 -46 -17z"/>
<path d="M8532 1888 c-34 -34 14 -102 55 -80 66 36 63 92 -5 92 -21 0 -43 -5
-50 -12z"/>
<path d="M8943 1889 c-17 -18 -16 -34 3 -50 12 -10 51 -14 131 -15 124 -1 139
6 126 55 -6 23 -10 24 -108 10 -5 -1 -39 2 -75 6 -48 5 -68 3 -77 -6z"/>
<path d="M9306 1887 c-29 -21 -16 -51 22 -55 17 -2 32 1 32 7 0 6 -6 8 -13 5
-7 -2 -21 3 -32 12 -11 8 -15 13 -8 10 6 -4 14 -2 18 4 3 5 12 10 18 10 7 0 6
-4 -3 -10 -13 -8 -13 -10 1 -10 23 0 30 11 18 27 -14 17 -30 17 -53 0z"/>
<path d="M2400 1698 c-53 -37 -74 -72 -74 -126 0 -120 121 -192 215 -129 50
33 71 80 66 146 -3 48 -8 58 -45 93 -35 32 -48 38 -85 38 -29 0 -55 -8 -77
-22z m97 -66 c17 -11 34 -62 28 -82 -7 -23 -57 -44 -83 -36 -34 11 -39 77 -10
114 12 13 46 16 65 4z"/>
<path d="M870 1651 c-12 -24 2 -69 25 -77 22 -9 45 14 45 45 0 48 -49 71 -70
32z"/>
<path d="M9012 1598 c-17 -17 -15 -73 4 -88 38 -32 104 35 78 78 -13 21 -65
27 -82 10z"/>
<path d="M8686 1584 c-21 -21 -20 -47 3 -68 22 -20 50 -15 76 14 15 17 16 24
7 45 -14 29 -61 35 -86 9z"/>
<path d="M2460 1223 c-8 -3 -25 -15 -37 -26 -27 -25 -32 -101 -8 -146 29 -57
110 -64 156 -15 34 36 33 124 -1 158 -25 25 -82 40 -110 29z m61 -91 c10 -27
-22 -65 -49 -60 -18 3 -28 48 -18 75 9 23 57 12 67 -15z"/>
<path d="M5028 1201 c-114 -23 -193 -151 -167 -271 20 -92 88 -158 182 -175
97 -18 211 60 242 167 32 111 -17 221 -115 261 -48 20 -98 26 -142 18z m92
-109 c36 -18 45 -42 26 -74 -8 -14 -13 -15 -25 -5 -12 10 -14 9 -9 -4 4 -10
-2 -26 -13 -38 -15 -16 -19 -29 -14 -51 13 -60 -46 -80 -95 -32 -53 53 -52
152 1 196 36 31 79 33 129 8z"/>
<path d="M7626 1179 c-34 -27 -36 -81 -5 -103 19 -13 25 -13 50 0 38 19 52 46
39 78 -7 21 -37 46 -53 46 -2 0 -16 -9 -31 -21z"/>
<path d="M4569 1117 c-55 -37 -73 -98 -49 -161 19 -52 102 -81 153 -55 64 33
89 88 67 153 -26 78 -105 108 -171 63z m89 -98 c4 -44 -17 -66 -47 -49 -15 7
-21 21 -21 44 0 40 7 48 40 44 21 -3 25 -9 28 -39z"/>
<path d="M2716 1062 c-3 -6 -1 -14 5 -17 15 -10 25 3 12 16 -7 7 -13 7 -17 1z"/>
<path d="M5448 986 c-8 -20 -8 -32 0 -51 18 -38 40 -42 70 -12 22 23 25 31 16
54 -7 22 -17 29 -42 31 -26 3 -34 -1 -44 -22z"/>
<path d="M5632 838 c-34 -38 -39 -84 -12 -113 45 -48 120 -15 120 52 0 64 -68
103 -108 61z"/>
</g>
</svg>
